<svg width="180" height="29" viewBox="0 0 180 29" fill="none" xmlns="http://www.w3.org/2000/svg">
<path d="M9.58439 25H7.50439L3.42439 19.672L7.34439 14.216H9.34439L5.39239 19.656L9.58439 25ZM3.21639 25H1.56839V14.216H3.21639V25ZM11.8505 25H10.2825V16.888H11.8505V18.312C12.2452 17.3093 12.9545 16.808 13.9785 16.808C14.1278 16.808 14.2932 16.824 14.4745 16.856V18.392C14.2505 18.296 13.9998 18.248 13.7225 18.248C13.1785 18.248 12.7305 18.488 12.3785 18.968C12.0265 19.448 11.8505 20.0187 11.8505 20.68V25ZM21.1604 17.96C21.8324 18.7387 22.1684 19.736 22.1684 20.952C22.1684 22.168 21.8217 23.1707 21.1284 23.96C20.4457 24.7493 19.5017 25.144 18.2964 25.144C17.1017 25.144 16.1631 24.7547 15.4804 23.976C14.7977 23.1973 14.4564 22.2107 14.4564 21.016C14.4564 19.8 14.8084 18.792 15.5124 17.992C16.2164 17.1813 17.1444 16.776 18.2964 16.776C19.5337 16.776 20.4884 17.1707 21.1604 17.96ZM16.0884 20.968C16.0884 21.768 16.2857 22.4453 16.6804 23C17.0751 23.544 17.6137 23.816 18.2964 23.816C19.0217 23.816 19.5711 23.5493 19.9444 23.016C20.3284 22.4827 20.5204 21.8053 20.5204 20.984C20.5204 20.1413 20.3391 19.4533 19.9764 18.92C19.6137 18.376 19.0484 18.104 18.2804 18.104C17.5871 18.104 17.0484 18.3813 16.6644 18.936C16.2804 19.48 16.0884 20.1573 16.0884 20.968ZM24.7036 28.104H23.1356V16.888H24.7036V18.136C25.2583 17.2293 26.0903 16.776 27.1996 16.776C28.2663 16.776 29.109 17.1653 29.7276 17.944C30.3463 18.712 30.6556 19.6933 30.6556 20.888C30.6556 22.1147 30.3356 23.128 29.6956 23.928C29.0663 24.7173 28.2236 25.112 27.1676 25.112C26.0903 25.112 25.269 24.664 24.7036 23.768V28.104ZM24.7036 20.92C24.7036 21.8587 24.9223 22.5627 25.3596 23.032C25.8076 23.5013 26.3143 23.736 26.8796 23.736C27.509 23.736 28.0263 23.4907 28.4316 23C28.837 22.4987 29.0396 21.8 29.0396 20.904C29.0396 20.0613 28.8423 19.3947 28.4476 18.904C28.053 18.4027 27.5516 18.152 26.9436 18.152C26.3356 18.152 25.8076 18.376 25.3596 18.824C24.9223 19.2613 24.7036 19.96 24.7036 20.92ZM33.1849 28.104H31.6169V16.888H33.1849V18.136C33.7396 17.2293 34.5716 16.776 35.6809 16.776C36.7476 16.776 37.5902 17.1653 38.2089 17.944C38.8276 18.712 39.1369 19.6933 39.1369 20.888C39.1369 22.1147 38.8169 23.128 38.1769 23.928C37.5476 24.7173 36.7049 25.112 35.6489 25.112C34.5716 25.112 33.7502 24.664 33.1849 23.768V28.104ZM33.1849 20.92C33.1849 21.8587 33.4036 22.5627 33.8409 23.032C34.2889 23.5013 34.7956 23.736 35.3609 23.736C35.9902 23.736 36.5076 23.4907 36.9129 23C37.3182 22.4987 37.5209 21.8 37.5209 20.904C37.5209 20.0613 37.3236 19.3947 36.9289 18.904C36.5342 18.4027 36.0329 18.152 35.4249 18.152C34.8169 18.152 34.2889 18.376 33.8409 18.824C33.4036 19.2613 33.1849 19.96 33.1849 20.92ZM45.1701 22.76C45.1701 23.4853 44.9141 24.056 44.4021 24.472C43.8901 24.8773 43.1968 25.08 42.3221 25.08C41.3621 25.08 40.5621 24.92 39.9221 24.6V23.112C40.6688 23.5707 41.4421 23.8 42.2421 23.8C42.6581 23.8 42.9781 23.7147 43.2021 23.544C43.4368 23.3733 43.5541 23.1493 43.5541 22.872C43.5541 22.6373 43.4635 22.4293 43.2821 22.248C43.1008 22.056 42.9141 21.9173 42.7221 21.832C42.5408 21.736 42.2261 21.592 41.7781 21.4C40.5088 20.8773 39.8741 20.1093 39.8741 19.096C39.8741 18.3813 40.1408 17.8213 40.6741 17.416C41.2075 17.0107 41.8741 16.808 42.6741 16.808C43.5488 16.808 44.2315 16.9253 44.7221 17.16V18.584C44.1995 18.2747 43.5275 18.12 42.7061 18.12C42.3328 18.12 42.0341 18.2053 41.8101 18.376C41.5968 18.5467 41.4901 18.7707 41.4901 19.048C41.4901 19.1227 41.4955 19.1973 41.5061 19.272C41.5275 19.336 41.5595 19.4053 41.6021 19.48C41.6448 19.544 41.6821 19.6027 41.7141 19.656C41.7568 19.6987 41.8208 19.7467 41.9061 19.8C41.9915 19.8533 42.0555 19.9013 42.0981 19.944C42.1515 19.976 42.2315 20.0187 42.3381 20.072C42.4555 20.1253 42.5408 20.168 42.5941 20.2C42.6475 20.2213 42.7381 20.264 42.8661 20.328C43.0048 20.3813 43.1008 20.4187 43.1541 20.44C43.7835 20.7173 44.2741 21.032 44.6261 21.384C44.9888 21.7253 45.1701 22.184 45.1701 22.76ZM49.9533 18.104H48.2413V25H46.6733V18.104H45.3773V16.888H46.6733V16.264C46.6733 15.4213 46.8973 14.76 47.3453 14.28C47.8039 13.7893 48.4439 13.544 49.2653 13.544C49.5639 13.544 49.8679 13.5867 50.1773 13.672V15.048C49.9319 14.9413 49.6759 14.888 49.4093 14.888C48.6306 14.888 48.2413 15.352 48.2413 16.28V16.888H49.9533V18.104ZM56.593 24.568C55.9957 24.9093 55.2064 25.08 54.225 25.08C52.9664 25.08 51.9637 24.7013 51.217 23.944C50.4704 23.1867 50.097 22.1947 50.097 20.968C50.097 19.6667 50.4384 18.648 51.121 17.912C51.8037 17.1653 52.673 16.792 53.729 16.792C54.7637 16.792 55.585 17.1173 56.193 17.768C56.801 18.408 57.105 19.336 57.105 20.552C57.105 20.8827 57.073 21.2293 57.009 21.592H51.681C51.7877 22.296 52.0864 22.8347 52.577 23.208C53.0677 23.5813 53.6864 23.768 54.433 23.768C55.297 23.768 56.017 23.5653 56.593 23.16V24.568ZM53.761 18.088C53.2277 18.088 52.769 18.2853 52.385 18.68C52.001 19.064 51.761 19.624 51.665 20.36H55.585V20.072C55.5637 19.464 55.3984 18.984 55.089 18.632C54.7797 18.2693 54.337 18.088 53.761 18.088ZM62.4073 24.792C62.0553 24.984 61.6233 25.08 61.1113 25.08C59.4366 25.08 58.5993 24.232 58.5993 22.536V18.104H57.3353V16.888H58.5993V14.904H60.1833V16.888H62.3113V18.104H60.1833V22.568C60.1833 23.3467 60.5566 23.736 61.3033 23.736C61.7406 23.736 62.1086 23.6187 62.4073 23.384V24.792ZM67.5916 24.792C67.2396 24.984 66.8076 25.08 66.2956 25.08C64.621 25.08 63.7836 24.232 63.7836 22.536V18.104H62.5196V16.888H63.7836V14.904H65.3676V16.888H67.4956V18.104H65.3676V22.568C65.3676 23.3467 65.741 23.736 66.4876 23.736C66.925 23.736 67.293 23.6187 67.5916 23.384V24.792ZM74.2495 16.728C74.2495 17.048 74.3508 17.3733 74.5535 17.704C74.7562 18.024 75.0815 18.424 75.5295 18.904C76.7348 18.3173 77.3375 17.6347 77.3375 16.856C77.3375 16.408 77.1988 16.0453 76.9215 15.768C76.6442 15.48 76.2495 15.336 75.7375 15.336C75.3002 15.336 74.9428 15.4587 74.6655 15.704C74.3882 15.9493 74.2495 16.2907 74.2495 16.728ZM81.9455 25H79.8975L78.9535 24.12C78.0788 24.792 76.9962 25.128 75.7055 25.128C74.4468 25.128 73.4335 24.8453 72.6655 24.28C71.9082 23.7147 71.5295 23.0053 71.5295 22.152C71.5295 20.8933 72.3562 19.9707 74.0095 19.384C73.0922 18.4133 72.6335 17.528 72.6335 16.728C72.6335 15.8853 72.9215 15.2133 73.4975 14.712C74.0735 14.2107 74.8255 13.96 75.7535 13.96C76.7135 13.96 77.4815 14.2267 78.0575 14.76C78.6442 15.2827 78.9375 15.9653 78.9375 16.808C78.9375 17.4373 78.7455 17.9973 78.3615 18.488C77.9775 18.9787 77.3482 19.4213 76.4735 19.816L78.8415 22.072C79.0868 21.6453 79.2255 21.144 79.2575 20.568H80.7295C80.6762 21.5173 80.4042 22.3547 79.9135 23.08L81.9455 25ZM75.6895 23.752C76.5642 23.752 77.3002 23.5387 77.8975 23.112L74.9695 20.36L74.9535 20.344C74.3242 20.5787 73.8655 20.8347 73.5775 21.112C73.2895 21.3787 73.1455 21.7093 73.1455 22.104C73.1455 22.6053 73.3855 23.0053 73.8655 23.304C74.3455 23.6027 74.9535 23.752 75.6895 23.752ZM96.5845 25H95.0165V19.88C95.0165 18.7173 94.5472 18.136 93.6085 18.136C93.1392 18.136 92.7178 18.344 92.3445 18.76C91.9818 19.176 91.8005 19.7893 91.8005 20.6V25H90.2325V19.88C90.2325 18.7173 89.7578 18.136 88.8085 18.136C88.3498 18.136 87.9338 18.344 87.5605 18.76C87.1872 19.176 87.0005 19.7893 87.0005 20.6V25H85.4325V16.888H87.0005V18.184C87.4592 17.2453 88.2218 16.776 89.2885 16.776C90.5045 16.776 91.2832 17.2987 91.6245 18.344C91.8485 17.8427 92.1738 17.4587 92.6005 17.192C93.0272 16.9147 93.5072 16.776 94.0405 16.776C94.8725 16.776 95.5018 17.0213 95.9285 17.512C96.3658 18.0027 96.5845 18.68 96.5845 19.544V25ZM100.538 23.832C101.05 23.832 101.45 23.6933 101.738 23.416C102.036 23.128 102.186 22.7547 102.186 22.296V21.384H100.97C100.372 21.384 99.9191 21.5013 99.6098 21.736C99.3111 21.9707 99.1618 22.2693 99.1618 22.632C99.1618 23.0053 99.2791 23.2987 99.5138 23.512C99.7484 23.7253 100.09 23.832 100.538 23.832ZM102.234 24.04C101.818 24.7227 101.087 25.064 100.042 25.064C99.2738 25.064 98.6551 24.8453 98.1858 24.408C97.7271 23.96 97.4978 23.3947 97.4978 22.712C97.4978 21.9333 97.7911 21.3307 98.3778 20.904C98.9644 20.4667 99.7858 20.248 100.842 20.248H102.186V19.784C102.186 19.2293 102.052 18.8133 101.786 18.536C101.519 18.248 101.076 18.104 100.458 18.104C99.5938 18.104 98.8098 18.344 98.1058 18.824V17.304C98.7351 16.9413 99.5671 16.76 100.602 16.76C102.724 16.76 103.786 17.7893 103.786 19.848V25H102.234V24.04ZM111.93 24.312C111.93 25.56 111.573 26.4987 110.858 27.128C110.154 27.768 109.247 28.088 108.138 28.088C107.093 28.088 106.213 27.912 105.498 27.56V25.976C106.181 26.424 107.007 26.648 107.978 26.648C109.567 26.648 110.362 25.864 110.362 24.296V23.464C109.839 24.3387 109.055 24.776 108.01 24.776C107.093 24.776 106.309 24.44 105.658 23.768C105.007 23.0853 104.682 22.1253 104.682 20.888C104.682 19.6933 104.986 18.712 105.594 17.944C106.202 17.1653 107.007 16.776 108.01 16.776C109.087 16.776 109.871 17.2347 110.362 18.152V16.888H111.93V24.312ZM106.33 20.856C106.33 21.6987 106.522 22.3387 106.906 22.776C107.301 23.2133 107.765 23.432 108.298 23.432C108.853 23.432 109.333 23.2187 109.738 22.792C110.154 22.3547 110.362 21.7467 110.362 20.968C110.362 20.008 110.165 19.2987 109.77 18.84C109.386 18.3813 108.917 18.152 108.362 18.152C107.733 18.152 107.237 18.4027 106.874 18.904C106.511 19.3947 106.33 20.0453 106.33 20.856ZM119.284 24.568C118.686 24.9093 117.897 25.08 116.916 25.08C115.657 25.08 114.654 24.7013 113.908 23.944C113.161 23.1867 112.788 22.1947 112.788 20.968C112.788 19.6667 113.129 18.648 113.812 17.912C114.494 17.1653 115.364 16.792 116.42 16.792C117.454 16.792 118.276 17.1173 118.884 17.768C119.492 18.408 119.796 19.336 119.796 20.552C119.796 20.8827 119.764 21.2293 119.7 21.592H114.372C114.478 22.296 114.777 22.8347 115.268 23.208C115.758 23.5813 116.377 23.768 117.124 23.768C117.988 23.768 118.708 23.5653 119.284 23.16V24.568ZM116.452 18.088C115.918 18.088 115.46 18.2853 115.076 18.68C114.692 19.064 114.452 19.624 114.356 20.36H118.276V20.072C118.254 19.464 118.089 18.984 117.78 18.632C117.47 18.2693 117.028 18.088 116.452 18.088Z" fill="black" fill-opacity="0.6"/>
<rect x="0.400391" width="179" height="7" rx="3.5" fill="#D9D9D9"/>
<rect x="0.400391" width="40" height="7" rx="3.5" fill="#646FE6"/>
</svg>
