<svg width="180" height="28" viewBox="0 0 180 28" fill="none" xmlns="http://www.w3.org/2000/svg">
<path d="M7.79239 24H1.56839V13.216H7.71239V14.592H3.21639V17.92H7.20039V19.296H3.21639V22.624H7.79239V24ZM15.6271 24H14.0591V18.88C14.0591 18.3147 13.9151 17.8827 13.6271 17.584C13.3498 17.2853 12.9765 17.136 12.5071 17.136C11.9525 17.136 11.4778 17.3547 11.0831 17.792C10.6885 18.2187 10.4911 18.8213 10.4911 19.6V24H8.92314V15.888H10.4911V17.28C10.9711 16.2773 11.8138 15.776 13.0191 15.776C13.8191 15.776 14.4538 16.0213 14.9231 16.512C15.3925 17.0027 15.6271 17.6693 15.6271 18.512V24ZM22.9836 23.568C22.3863 23.9093 21.597 24.08 20.6156 24.08C19.357 24.08 18.3543 23.7013 17.6076 22.944C16.861 22.1867 16.4876 21.1947 16.4876 19.968C16.4876 18.6667 16.829 17.648 17.5116 16.912C18.1943 16.1653 19.0636 15.792 20.1196 15.792C21.1543 15.792 21.9756 16.1173 22.5836 16.768C23.1916 17.408 23.4956 18.336 23.4956 19.552C23.4956 19.8827 23.4636 20.2293 23.3996 20.592H18.0716C18.1783 21.296 18.477 21.8347 18.9676 22.208C19.4583 22.5813 20.077 22.768 20.8236 22.768C21.6876 22.768 22.4076 22.5653 22.9836 22.16V23.568ZM20.1516 17.088C19.6183 17.088 19.1596 17.2853 18.7756 17.68C18.3916 18.064 18.1516 18.624 18.0556 19.36H21.9756V19.072C21.9543 18.464 21.789 17.984 21.4796 17.632C21.1703 17.2693 20.7276 17.088 20.1516 17.088ZM26.1099 24H24.5419V15.888H26.1099V17.312C26.5046 16.3093 27.2139 15.808 28.2379 15.808C28.3872 15.808 28.5526 15.824 28.7339 15.856V17.392C28.5099 17.296 28.2592 17.248 27.9819 17.248C27.4379 17.248 26.9899 17.488 26.6379 17.968C26.2859 18.448 26.1099 19.0187 26.1099 19.68V24ZM35.9958 23.312C35.9958 24.56 35.6384 25.4987 34.9238 26.128C34.2198 26.768 33.3131 27.088 32.2038 27.088C31.1584 27.088 30.2784 26.912 29.5638 26.56V24.976C30.2464 25.424 31.0731 25.648 32.0438 25.648C33.6331 25.648 34.4278 24.864 34.4278 23.296V22.464C33.9051 23.3387 33.1211 23.776 32.0758 23.776C31.1584 23.776 30.3744 23.44 29.7238 22.768C29.0731 22.0853 28.7478 21.1253 28.7478 19.888C28.7478 18.6933 29.0518 17.712 29.6598 16.944C30.2678 16.1653 31.0731 15.776 32.0758 15.776C33.1531 15.776 33.9371 16.2347 34.4278 17.152V15.888H35.9958V23.312ZM30.3958 19.856C30.3958 20.6987 30.5878 21.3387 30.9718 21.776C31.3664 22.2133 31.8304 22.432 32.3638 22.432C32.9184 22.432 33.3984 22.2187 33.8038 21.792C34.2198 21.3547 34.4278 20.7467 34.4278 19.968C34.4278 19.008 34.2304 18.2987 33.8358 17.84C33.4518 17.3813 32.9824 17.152 32.4278 17.152C31.7984 17.152 31.3024 17.4027 30.9398 17.904C30.5771 18.3947 30.3958 19.0453 30.3958 19.856ZM38.9493 24H37.3653V15.888H38.9493V24ZM39.1413 13.408C39.1413 13.6747 39.0453 13.904 38.8533 14.096C38.6613 14.288 38.4266 14.384 38.1493 14.384C37.8719 14.384 37.6373 14.2933 37.4453 14.112C37.2639 13.92 37.1733 13.6853 37.1733 13.408C37.1733 13.1307 37.2639 12.896 37.4453 12.704C37.6373 12.512 37.8719 12.416 38.1493 12.416C38.4266 12.416 38.6613 12.512 38.8533 12.704C39.0453 12.896 39.1413 13.1307 39.1413 13.408ZM46.1526 15.728C46.1526 16.048 46.254 16.3733 46.4566 16.704C46.6593 17.024 46.9846 17.424 47.4326 17.904C48.638 17.3173 49.2406 16.6347 49.2406 15.856C49.2406 15.408 49.102 15.0453 48.8246 14.768C48.5473 14.48 48.1526 14.336 47.6406 14.336C47.2033 14.336 46.846 14.4587 46.5686 14.704C46.2913 14.9493 46.1526 15.2907 46.1526 15.728ZM53.8486 24H51.8006L50.8566 23.12C49.982 23.792 48.8993 24.128 47.6086 24.128C46.35 24.128 45.3366 23.8453 44.5686 23.28C43.8113 22.7147 43.4326 22.0053 43.4326 21.152C43.4326 19.8933 44.2593 18.9707 45.9126 18.384C44.9953 17.4133 44.5366 16.528 44.5366 15.728C44.5366 14.8853 44.8246 14.2133 45.4006 13.712C45.9766 13.2107 46.7286 12.96 47.6566 12.96C48.6166 12.96 49.3846 13.2267 49.9606 13.76C50.5473 14.2827 50.8406 14.9653 50.8406 15.808C50.8406 16.4373 50.6486 16.9973 50.2646 17.488C49.8806 17.9787 49.2513 18.4213 48.3766 18.816L50.7446 21.072C50.99 20.6453 51.1286 20.144 51.1606 19.568H52.6326C52.5793 20.5173 52.3073 21.3547 51.8166 22.08L53.8486 24ZM47.5926 22.752C48.4673 22.752 49.2033 22.5387 49.8006 22.112L46.8726 19.36L46.8566 19.344C46.2273 19.5787 45.7686 19.8347 45.4806 20.112C45.1926 20.3787 45.0486 20.7093 45.0486 21.104C45.0486 21.6053 45.2886 22.0053 45.7686 22.304C46.2486 22.6027 46.8566 22.752 47.5926 22.752ZM64.0396 24H62.4716V18.88C62.4716 18.3253 62.3276 17.8987 62.0396 17.6C61.7623 17.2907 61.3943 17.136 60.9356 17.136C60.4023 17.136 59.9276 17.3387 59.5116 17.744C59.1063 18.1493 58.9036 18.768 58.9036 19.6V24H57.3356V12.688H58.9036V17.28C59.3623 16.2773 60.1996 15.776 61.4156 15.776C62.205 15.776 62.8396 16.0213 63.3196 16.512C63.7996 17.0027 64.0396 17.6853 64.0396 18.56V24ZM71.9561 24H70.3881V22.608C69.9615 23.6 69.1188 24.096 67.8601 24.096C67.0601 24.096 66.4255 23.8613 65.9561 23.392C65.4868 22.912 65.2521 22.256 65.2521 21.424V15.888H66.8361V21.04C66.8361 21.5947 66.9695 22.0213 67.2361 22.32C67.5135 22.608 67.8921 22.752 68.3721 22.752C68.9801 22.752 69.4655 22.5387 69.8281 22.112C70.2015 21.6853 70.3881 21.0827 70.3881 20.304V15.888H71.9561V24ZM84.5126 24H82.9446V18.88C82.9446 17.7173 82.4753 17.136 81.5366 17.136C81.0673 17.136 80.646 17.344 80.2726 17.76C79.91 18.176 79.7286 18.7893 79.7286 19.6V24H78.1606V18.88C78.1606 17.7173 77.686 17.136 76.7366 17.136C76.278 17.136 75.862 17.344 75.4886 17.76C75.1153 18.176 74.9286 18.7893 74.9286 19.6V24H73.3606V15.888H74.9286V17.184C75.3873 16.2453 76.15 15.776 77.2166 15.776C78.4326 15.776 79.2113 16.2987 79.5526 17.344C79.7766 16.8427 80.102 16.4587 80.5286 16.192C80.9553 15.9147 81.4353 15.776 81.9686 15.776C82.8006 15.776 83.43 16.0213 83.8566 16.512C84.294 17.0027 84.5126 17.68 84.5126 18.544V24ZM93.2659 19.952C93.2659 21.168 92.9192 22.1707 92.2259 22.96C91.5326 23.7493 90.5832 24.144 89.3779 24.144C88.6206 24.144 87.9592 23.9787 87.3939 23.648L87.0259 24.144H85.5379L86.4819 22.88C85.8526 22.1227 85.5379 21.168 85.5379 20.016C85.5379 18.8 85.8899 17.792 86.5939 16.992C87.2979 16.1813 88.2259 15.776 89.3779 15.776C90.1566 15.776 90.8286 15.9413 91.3939 16.272L91.7619 15.776H93.2659L92.3219 17.04C92.9512 17.7973 93.2659 18.768 93.2659 19.952ZM87.0259 19.968C87.0259 20.5973 87.1486 21.1573 87.3939 21.648L90.6259 17.296C90.2846 17.072 89.8686 16.96 89.3779 16.96C88.6312 16.96 88.0499 17.248 87.6339 17.824C87.2286 18.4 87.0259 19.1147 87.0259 19.968ZM89.3939 22.96C90.1619 22.96 90.7486 22.6827 91.1539 22.128C91.5592 21.5627 91.7619 20.848 91.7619 19.984C91.7619 19.28 91.6499 18.6987 91.4259 18.24L88.1779 22.592C88.5192 22.8373 88.9246 22.96 89.3939 22.96ZM95.6255 24H94.0575V15.888H95.6255V17.312C96.0202 16.3093 96.7295 15.808 97.7535 15.808C97.9028 15.808 98.0682 15.824 98.2495 15.856V17.392C98.0255 17.296 97.7748 17.248 97.4975 17.248C96.9535 17.248 96.5055 17.488 96.1535 17.968C95.8015 18.448 95.6255 19.0187 95.6255 19.68V24Z" fill="black" fill-opacity="0.6"/>
<rect x="0.400391" width="179" height="7" rx="3.5" fill="#D9D9D9"/>
<rect x="0.400391" width="58" height="7" rx="3.5" fill="#FBDA65"/>
</svg>
