<svg width="180" height="25" viewBox="0 0 180 25" fill="none" xmlns="http://www.w3.org/2000/svg">
<path d="M2.81639 24H1.52039L2.30439 13.216H3.95239L5.37639 17.152L7.10439 22.176C7.72306 20.4267 8.33106 18.752 8.92839 17.152L10.4164 13.216H12.0644L13.0084 24H11.7124L11.3444 19.744L10.9604 14.96C10.3951 16.5387 9.81372 18.1333 9.21639 19.744L7.71239 23.76H6.48039L5.05639 19.744L3.42439 15.056C3.42439 15.472 3.32306 17.0347 3.12039 19.744L2.81639 24ZM20.7911 24H19.5271V22.592C19.1005 23.5947 18.2525 24.096 16.9831 24.096C16.1831 24.096 15.5485 23.8613 15.0791 23.392C14.6205 22.912 14.3911 22.272 14.3911 21.472V15.888H15.6551V21.152C15.6551 21.7387 15.8045 22.1867 16.1031 22.496C16.4018 22.8053 16.8071 22.96 17.3191 22.96C17.9911 22.96 18.5245 22.7253 18.9191 22.256C19.3245 21.7867 19.5271 21.152 19.5271 20.352V15.888H20.7911V24ZM27.2078 21.84C27.2078 22.5333 26.9624 23.0827 26.4718 23.488C25.9918 23.8933 25.3304 24.096 24.4878 24.096C23.5064 24.096 22.7118 23.9307 22.1038 23.6V22.368C22.8184 22.7947 23.5864 23.008 24.4078 23.008C24.8984 23.008 25.2718 22.912 25.5278 22.72C25.7838 22.528 25.9118 22.2667 25.9118 21.936C25.9118 21.552 25.7678 21.2533 25.4798 21.04C25.2024 20.8267 24.7331 20.5867 24.0718 20.32C23.4638 20.0853 22.9731 19.792 22.5998 19.44C22.2371 19.088 22.0558 18.6133 22.0558 18.016C22.0558 17.344 22.3064 16.8107 22.8078 16.416C23.3198 16.0107 23.9544 15.808 24.7118 15.808C25.5544 15.808 26.2318 15.9253 26.7438 16.16V17.36C26.2531 17.0613 25.5811 16.912 24.7278 16.912C24.3011 16.912 23.9598 17.0133 23.7038 17.216C23.4584 17.408 23.3358 17.6587 23.3358 17.968C23.3358 18.16 23.3731 18.3307 23.4478 18.48C23.5224 18.6187 23.6664 18.7573 23.8798 18.896C24.1038 19.0347 24.2638 19.1307 24.3598 19.184C24.4664 19.2267 24.6904 19.3227 25.0318 19.472C25.7144 19.7493 26.2478 20.064 26.6318 20.416C27.0158 20.768 27.2078 21.2427 27.2078 21.84ZM29.3695 24H28.1215V12.752H29.3695V24ZM31.0175 19.744L34.3135 24H32.7935L29.5295 19.744L32.7135 15.888H34.2175L31.0175 19.744ZM40.929 23.584C40.2997 23.9147 39.5317 24.08 38.625 24.08C37.3983 24.08 36.4063 23.7067 35.649 22.96C34.9023 22.2027 34.529 21.2053 34.529 19.968C34.529 18.6773 34.865 17.6587 35.537 16.912C36.209 16.1653 37.073 15.792 38.129 15.792C39.1423 15.792 39.9477 16.1173 40.545 16.768C41.1423 17.4187 41.441 18.3413 41.441 19.536C41.441 19.8773 41.4143 20.192 41.361 20.48H35.825C35.921 21.28 36.225 21.8933 36.737 22.32C37.249 22.7467 37.921 22.96 38.753 22.96C39.6597 22.96 40.385 22.7733 40.929 22.4V23.584ZM38.129 16.896C37.521 16.896 37.0037 17.1147 36.577 17.552C36.1503 17.9893 35.8997 18.6133 35.825 19.424H40.177V19.104C40.177 18.432 39.9957 17.8987 39.633 17.504C39.2703 17.0987 38.769 16.896 38.129 16.896ZM43.8964 24H42.6324V12.688H43.8964V24ZM56.3508 24H55.0868V18.752C55.0868 17.5253 54.5694 16.912 53.5348 16.912C53.0228 16.912 52.5641 17.1467 52.1588 17.616C51.7534 18.0747 51.5508 18.7253 51.5508 19.568V24H50.2868V18.752C50.2868 17.5253 49.7694 16.912 48.7348 16.912C48.2228 16.912 47.7641 17.1467 47.3588 17.616C46.9534 18.0747 46.7508 18.7253 46.7508 19.568V24H45.5028V15.888H46.7508V17.2C47.1988 16.2507 47.9614 15.776 49.0388 15.776C50.2868 15.776 51.0761 16.304 51.4068 17.36C51.6414 16.848 51.9668 16.4587 52.3828 16.192C52.8094 15.9147 53.2841 15.776 53.8068 15.776C54.6494 15.776 55.2841 16.016 55.7108 16.496C56.1374 16.976 56.3508 17.6213 56.3508 18.432V24ZM60.2765 23.024C60.8525 23.024 61.3112 22.864 61.6525 22.544C61.9939 22.2133 62.1645 21.7973 62.1645 21.296V20.256H60.7565C60.0739 20.256 59.5619 20.3893 59.2205 20.656C58.8792 20.9227 58.7085 21.2587 58.7085 21.664C58.7085 22.0693 58.8419 22.4 59.1085 22.656C59.3752 22.9013 59.7645 23.024 60.2765 23.024ZM62.1805 23.04C61.7645 23.7333 61.0072 24.08 59.9085 24.08C59.1512 24.08 58.5379 23.856 58.0685 23.408C57.6099 22.96 57.3805 22.3947 57.3805 21.712C57.3805 20.9333 57.6739 20.3307 58.2605 19.904C58.8579 19.4667 59.6685 19.248 60.6925 19.248H62.1645V18.832C62.1645 18.192 62.0205 17.712 61.7325 17.392C61.4445 17.0613 60.9592 16.896 60.2765 16.896C59.4125 16.896 58.6445 17.1253 57.9725 17.584V16.32C58.5805 15.9467 59.3805 15.76 60.3725 15.76C62.4099 15.76 63.4285 16.7947 63.4285 18.864V24H62.1805V23.04ZM69.7515 21.84C69.7515 22.5333 69.5062 23.0827 69.0155 23.488C68.5355 23.8933 67.8742 24.096 67.0315 24.096C66.0502 24.096 65.2555 23.9307 64.6475 23.6V22.368C65.3622 22.7947 66.1302 23.008 66.9515 23.008C67.4422 23.008 67.8155 22.912 68.0715 22.72C68.3275 22.528 68.4555 22.2667 68.4555 21.936C68.4555 21.552 68.3115 21.2533 68.0235 21.04C67.7462 20.8267 67.2768 20.5867 66.6155 20.32C66.0075 20.0853 65.5168 19.792 65.1435 19.44C64.7808 19.088 64.5995 18.6133 64.5995 18.016C64.5995 17.344 64.8502 16.8107 65.3515 16.416C65.8635 16.0107 66.4982 15.808 67.2555 15.808C68.0982 15.808 68.7755 15.9253 69.2875 16.16V17.36C68.7968 17.0613 68.1248 16.912 67.2715 16.912C66.8448 16.912 66.5035 17.0133 66.2475 17.216C66.0022 17.408 65.8795 17.6587 65.8795 17.968C65.8795 18.16 65.9168 18.3307 65.9915 18.48C66.0662 18.6187 66.2102 18.7573 66.4235 18.896C66.6475 19.0347 66.8075 19.1307 66.9035 19.184C67.0102 19.2267 67.2342 19.3227 67.5755 19.472C68.2582 19.7493 68.7915 20.064 69.1755 20.416C69.5595 20.768 69.7515 21.2427 69.7515 21.84ZM75.5453 21.84C75.5453 22.5333 75.2999 23.0827 74.8093 23.488C74.3293 23.8933 73.6679 24.096 72.8253 24.096C71.8439 24.096 71.0493 23.9307 70.4413 23.6V22.368C71.1559 22.7947 71.9239 23.008 72.7453 23.008C73.2359 23.008 73.6093 22.912 73.8653 22.72C74.1213 22.528 74.2493 22.2667 74.2493 21.936C74.2493 21.552 74.1053 21.2533 73.8173 21.04C73.5399 20.8267 73.0706 20.5867 72.4093 20.32C71.8013 20.0853 71.3106 19.792 70.9373 19.44C70.5746 19.088 70.3933 18.6133 70.3933 18.016C70.3933 17.344 70.6439 16.8107 71.1453 16.416C71.6573 16.0107 72.2919 15.808 73.0493 15.808C73.8919 15.808 74.5693 15.9253 75.0813 16.16V17.36C74.5906 17.0613 73.9186 16.912 73.0653 16.912C72.6386 16.912 72.2973 17.0133 72.0413 17.216C71.7959 17.408 71.6733 17.6587 71.6733 17.968C71.6733 18.16 71.7106 18.3307 71.7853 18.48C71.8599 18.6187 72.0039 18.7573 72.2173 18.896C72.4413 19.0347 72.6013 19.1307 72.6973 19.184C72.8039 19.2267 73.0279 19.3227 73.3693 19.472C74.0519 19.7493 74.5853 20.064 74.9693 20.416C75.3533 20.768 75.5453 21.2427 75.5453 21.84ZM82.379 23.584C81.7497 23.9147 80.9817 24.08 80.075 24.08C78.8483 24.08 77.8563 23.7067 77.099 22.96C76.3523 22.2027 75.979 21.2053 75.979 19.968C75.979 18.6773 76.315 17.6587 76.987 16.912C77.659 16.1653 78.523 15.792 79.579 15.792C80.5923 15.792 81.3977 16.1173 81.995 16.768C82.5923 17.4187 82.891 18.3413 82.891 19.536C82.891 19.8773 82.8643 20.192 82.811 20.48H77.275C77.371 21.28 77.675 21.8933 78.187 22.32C78.699 22.7467 79.371 22.96 80.203 22.96C81.1097 22.96 81.835 22.7733 82.379 22.4V23.584ZM79.579 16.896C78.971 16.896 78.4537 17.1147 78.027 17.552C77.6003 17.9893 77.3497 18.6133 77.275 19.424H81.627V19.104C81.627 18.432 81.4457 17.8987 81.083 17.504C80.7203 17.0987 80.219 16.896 79.579 16.896Z" fill="black" fill-opacity="0.7"/>
<rect x="0.400391" width="179" height="7" rx="3.5" fill="#D9D9D9"/>
<rect x="0.400391" width="41" height="7" rx="3.5" fill="#66B681"/>
</svg>
