<svg
  width="98"
  height="52"
  viewBox="0 0 98 52"
  fill="none"
  xmlns="http://www.w3.org/2000/svg"
>
  <path
    d="M13.6553 28.8955C13.7438 28.4639 13.7881 26.9863 13.7881 24.4629C13.7881 21.9395 13.5944 20.2904 13.207 19.5156C12.8197 18.7409 12.1003 18.3535 11.0488 18.3535C10.418 18.3535 9.76497 18.6025 9.08984 19.1006C8.41471 19.5876 7.96647 20.1299 7.74512 20.7275C7.52376 21.3252 7.41309 22.7197 7.41309 24.9111C7.41309 27.0915 7.42969 28.4362 7.46289 28.9453C7.50716 29.4544 7.59017 29.8529 7.71191 30.1406L7.92773 30.5557C8.10482 30.8988 8.19336 31.1478 8.19336 31.3027C8.19336 31.7122 7.34668 31.917 5.65332 31.917C3.95996 31.917 2.85872 31.7454 2.34961 31.4023L2.05078 31.0869C2.05078 30.777 2.16146 30.5114 2.38281 30.29C3.04688 29.6149 3.43978 29.1003 3.56152 28.7461C3.68327 28.3919 3.74414 26.8258 3.74414 24.0479C3.74414 21.2588 3.50618 19.4382 3.03027 18.5859L2.68164 18.1377C2.39388 17.7725 2.25 17.4958 2.25 17.3076C2.25 17.1084 2.45475 16.8815 2.86426 16.627C3.28483 16.3613 3.93229 16.2285 4.80664 16.2285C5.69206 16.2285 6.35612 16.4665 6.79883 16.9424C7.24154 17.4072 7.55697 17.6396 7.74512 17.6396L8.24316 17.4072L9.50488 16.6602C10.5342 16.1178 11.5801 15.8467 12.6426 15.8467C13.7051 15.8467 14.7178 16.1732 15.6807 16.8262C16.6436 17.4681 17.2467 17.7891 17.4902 17.7891L18.0547 17.5234L18.6689 17.1582C19.1891 16.8483 19.748 16.5716 20.3457 16.3281C20.9212 16.0846 21.6849 15.9629 22.6367 15.9629C24.4518 15.9629 25.7357 16.7155 26.4883 18.2207C27.0417 19.3275 27.3184 21.9173 27.3184 25.9902C27.3184 27.7389 27.3737 28.7572 27.4844 29.0449C27.5951 29.3216 27.8939 29.6592 28.3809 30.0576C28.8678 30.4561 29.1113 30.6885 29.1113 30.7549V31.1533L28.7959 31.4521C28.2646 31.7731 26.9144 31.9336 24.7451 31.9336C23.7048 31.9336 23.1846 31.679 23.1846 31.1699C23.1846 31.1146 23.2565 30.8656 23.4004 30.4229C23.5553 29.9801 23.6439 29.626 23.666 29.3604C23.6992 29.0837 23.7158 27.6725 23.7158 25.127C23.7158 22.5814 23.5885 20.9876 23.334 20.3457C23.0905 19.6927 22.7806 19.1947 22.4043 18.8516C22.0391 18.4974 21.4801 18.3203 20.7275 18.3203C19.9749 18.3203 19.3385 18.5251 18.8184 18.9346C18.2982 19.3441 17.9329 19.8034 17.7227 20.3125C17.5124 20.8105 17.4072 22.3268 17.4072 24.8613C17.4072 27.3958 17.4847 28.8623 17.6396 29.2607C17.7946 29.6481 18.0824 30.0299 18.5029 30.4062C18.9346 30.7826 19.1504 31.0316 19.1504 31.1533C19.1504 31.7067 18.182 31.9834 16.2451 31.9834H13.9209C12.7588 31.9834 12.1777 31.8174 12.1777 31.4854C12.1777 31.1423 12.3216 30.8158 12.6094 30.5059C13.2292 29.8529 13.5778 29.3161 13.6553 28.8955ZM33.4311 18.2539C33.4311 19.4382 34.3497 22.2493 36.1869 26.6875C36.4415 27.3073 36.6462 27.6172 36.8012 27.6172C36.9561 27.6172 37.2439 27.1689 37.6645 26.2725C39.1918 23.0407 39.9555 20.6003 39.9555 18.9512C39.9555 18.4753 39.878 18.0879 39.723 17.7891L39.5404 17.4902C39.2748 17.1361 39.142 16.887 39.142 16.7432C39.142 16.3115 39.8448 16.0957 41.2504 16.0957H42.3129C43.6521 16.0957 44.3217 16.3503 44.3217 16.8594C44.3217 17.1471 44.045 17.5898 43.4916 18.1875C42.9493 18.7741 42.5564 19.3441 42.3129 19.8975C42.0694 20.4508 41.1785 22.764 39.64 26.8369C38.1127 30.8988 36.9285 33.6712 36.0873 35.1543C35.2462 36.6484 34.4604 37.722 33.7299 38.375C33.0105 39.028 32.2689 39.3545 31.5053 39.3545H31.0736C30.4981 39.3545 30.0056 39.1885 29.5961 38.8564C29.1977 38.5355 28.9984 38.1979 28.9984 37.8438C28.9984 37.5007 29.1368 37.2184 29.4135 36.9971C29.7012 36.7868 30.0775 36.6816 30.5424 36.6816L30.9242 36.7148C31.0902 36.7259 31.3448 36.7314 31.6879 36.7314C32.4626 36.7314 33.1765 36.2334 33.8295 35.2373C34.4825 34.2412 34.809 33.234 34.809 32.2158C34.809 31.1976 33.2318 27.3516 30.0775 20.6777C29.7898 20.069 29.3637 19.4382 28.7992 18.7852C28.2458 18.1322 27.9691 17.6784 27.9691 17.4238C27.9691 17.0033 28.2624 16.71 28.849 16.5439C29.4356 16.3669 30.3764 16.2783 31.6713 16.2783C32.9773 16.2783 33.6303 16.5605 33.6303 17.125C33.4975 17.7005 33.4311 18.0768 33.4311 18.2539ZM43.1629 31.4189C43.1629 31.1865 43.4119 30.8877 43.91 30.5225C44.4191 30.1572 44.7622 29.5872 44.9393 28.8125C45.1163 28.0267 45.2049 25.0605 45.2049 19.9141C45.2049 14.7676 45.144 11.8512 45.0223 11.165C44.9116 10.4788 44.6294 9.98633 44.1756 9.6875C43.4451 9.21159 43.0799 8.91829 43.0799 8.80762V8.6084C43.0799 8.42025 43.2404 8.25423 43.5613 8.11035C44.5574 7.67871 45.8855 7.46289 47.5457 7.46289H47.8777C48.4422 7.46289 48.7687 7.84473 48.8572 8.6084C48.8683 8.70801 48.8738 9.54362 48.8738 11.1152V14.6846L48.8572 15.3652V16.4111L48.8406 17.0918C48.8406 17.0918 48.8406 18.846 48.8406 22.3545C48.8406 25.6305 48.8904 27.6615 48.99 28.4473C49.1007 29.222 49.3497 29.7865 49.7371 30.1406C49.7814 30.1738 50.0138 30.3177 50.4344 30.5723C50.8549 30.8268 51.0652 31.0869 51.0652 31.3525C51.0652 31.7399 50.379 31.9336 49.0066 31.9336L48.326 31.9668H47.6453L44.9227 32.0166H44.574C43.6333 32.0166 43.1629 31.8174 43.1629 31.4189ZM66.9396 30.1904C67.4266 30.5667 67.6701 30.8379 67.6701 31.0039C67.6701 31.1589 67.5871 31.3083 67.4211 31.4521C66.9452 31.8838 65.927 32.0996 64.3664 32.0996C63.8573 32.0996 63.4589 32.0166 63.1711 31.8506C62.8944 31.6735 62.6454 31.3581 62.424 30.9043C62.2137 30.4505 62.0367 30.2236 61.8928 30.2236C61.7489 30.2347 61.4279 30.4173 60.9299 30.7715C59.5354 31.7786 58.2017 32.2822 56.9289 32.2822C56.9178 32.2822 56.9012 32.2822 56.8791 32.2822H56.3811C54.5549 32.2822 53.2323 31.5075 52.4133 29.958C51.9927 29.1501 51.7769 27.1745 51.7658 24.0312C51.7658 20.877 51.716 19.1449 51.6164 18.835C51.5168 18.514 51.1626 18.2152 50.5539 17.9385C49.9562 17.6507 49.6574 17.4294 49.6574 17.2744C49.6574 16.8649 49.8511 16.5993 50.2385 16.4775C51.1018 16.2008 52.203 16.0625 53.5422 16.0625C54.3169 16.0625 54.8094 16.3779 55.0197 17.0088C55.2964 17.8167 55.4348 19.748 55.4348 22.8027C55.4348 25.8464 55.5676 27.6947 55.8332 28.3477C56.287 29.4655 57.1115 30.0244 58.3068 30.0244C58.9266 30.0244 59.5409 29.8639 60.1496 29.543C60.7694 29.222 61.2508 28.7904 61.5939 28.248C61.937 27.7057 62.1086 26.2171 62.1086 23.7822C62.1086 21.3363 62.0256 19.7979 61.8596 19.167C61.7046 18.5361 61.4611 18.0436 61.1291 17.6895C60.7971 17.3242 60.6311 17.0365 60.6311 16.8262C60.6311 16.3392 61.9315 16.0957 64.5324 16.0957C65.0747 16.0957 65.4289 16.2174 65.5949 16.4609C65.7609 16.6934 65.8439 17.125 65.8439 17.7559L65.7941 18.7354L65.7111 23.1514C65.7111 26.029 65.7941 27.8275 65.9602 28.5469C66.1262 29.2552 66.4527 29.8031 66.9396 30.1904ZM79.1285 20.6113C78.6637 20.6113 78.0162 20.1299 77.1861 19.167C76.3671 18.2041 75.4153 17.7227 74.3307 17.7227C73.2571 17.7227 72.3551 18.2594 71.6246 19.333C70.8941 20.3955 70.5289 21.9062 70.5289 23.8652C70.5289 25.8242 70.9771 27.3571 71.8736 28.4639C72.7812 29.5596 73.9599 30.1074 75.4098 30.1074C76.2066 30.1074 76.8707 30.0078 77.402 29.8086C77.9443 29.6094 78.4423 29.3991 78.8961 29.1777C79.3609 28.9453 79.6874 28.8291 79.8756 28.8291C80.1966 28.8291 80.357 29.0394 80.357 29.46C80.357 30.1019 79.7096 30.7383 78.4146 31.3691C77.1197 32 75.8635 32.3154 74.6461 32.3154C72.2776 32.3154 70.374 31.5739 68.9352 30.0908C68.3486 29.4821 67.8561 28.7018 67.4576 27.75C67.0592 26.7871 66.86 25.7578 66.86 24.6621V23.8486C66.86 23.8265 66.86 23.7988 66.86 23.7656C66.86 23.7435 66.86 23.7214 66.86 23.6992C66.86 22.7363 67.0758 21.7402 67.5074 20.7109C68.3596 18.6966 69.732 17.3021 71.6246 16.5273C72.7203 16.0846 73.8105 15.8633 74.8951 15.8633H75.277C76.7711 15.8633 78.0383 16.1234 79.0787 16.6436C79.9199 17.0641 80.3404 17.7669 80.3404 18.752C80.3404 19.4049 80.2076 19.8809 79.942 20.1797C79.6874 20.4674 79.4163 20.6113 79.1285 20.6113ZM86.4863 24.9609C85.8112 24.9609 85.4736 25.9349 85.4736 27.8828C85.4736 28.569 85.6341 29.2386 85.9551 29.8916L86.4033 30.6553C86.5583 30.932 86.6357 31.1312 86.6357 31.2529C86.6357 31.6514 85.5234 31.8506 83.2988 31.8506C81.0742 31.8506 79.9619 31.6624 79.9619 31.2861C79.9619 31.1865 80.1445 30.8877 80.5098 30.3896C80.8861 29.8805 81.1572 29.2884 81.3232 28.6133C81.5003 27.9271 81.5889 26.3389 81.5889 23.8486L81.6055 23.2178C81.6276 22.6533 81.6387 22.2327 81.6387 21.9561L81.6719 20.6943L81.6885 19.416V16.8428C81.6885 13.6442 81.6276 11.7572 81.5059 11.1816C81.3952 10.5951 81.1904 10.1523 80.8916 9.85352L80.5264 9.57129L80.1279 9.32227C79.807 9.08984 79.6465 8.87402 79.6465 8.6748C79.6465 8.46452 79.7793 8.2819 80.0449 8.12695C80.7975 7.69531 81.9596 7.47949 83.5312 7.47949H84.0957C84.7266 7.47949 85.1195 7.92773 85.2744 8.82422C85.3298 9.15625 85.3574 11.6354 85.3574 16.2617L85.3408 18.1709C85.3408 19.6872 85.3464 20.4951 85.3574 20.5947C85.4792 21.6462 85.7669 22.1719 86.2207 22.1719C86.6745 22.1719 87.4548 21.5742 88.5615 20.3789C89.6683 19.1725 90.2217 18.3148 90.2217 17.8057L90.1719 17.208C90.1719 16.8317 90.3158 16.5661 90.6035 16.4111C90.9023 16.2562 91.5166 16.1787 92.4463 16.1787C94.5602 16.1787 95.6172 16.4056 95.6172 16.8594C95.6172 16.8704 94.6377 17.6618 92.6787 19.2334C90.7197 20.805 89.7402 21.9284 89.7402 22.6035C89.7402 23.2786 91.085 25.1878 93.7744 28.3311C94.361 29.0173 95.0029 29.6094 95.7002 30.1074C96.4085 30.6055 96.7627 30.9375 96.7627 31.1035C96.7627 31.6458 95.9437 31.917 94.3057 31.917H93.0938C92.0312 31.917 91.2676 31.6126 90.8027 31.0039L90.1387 29.3936C89.862 28.7295 89.4027 27.9437 88.7607 27.0361C87.7757 25.6527 87.0176 24.9609 86.4863 24.9609Z"
    fill="currentColor"
  />
  <path
    d="M5.31875 46.9023C5.31875 47.5664 5.39102 47.9883 5.53555 48.168C5.7543 48.4414 6.10195 48.5781 6.57852 48.5781H6.77188C6.92031 48.5781 7.09609 48.5215 7.29922 48.4082C7.50625 48.2949 7.67227 48.1328 7.79727 47.9219C8.05508 47.4844 8.18398 46.9492 8.18398 46.3164V46.2461L8.17813 46.1758C8.17813 45.5 8.04727 44.9629 7.78555 44.5645C7.52773 44.1621 7.18398 43.9609 6.7543 43.9609H6.6957C6.45352 43.9609 6.21328 44.0273 5.975 44.1602C5.73672 44.2891 5.56875 44.4434 5.47109 44.623C5.37344 44.7988 5.32461 45.4062 5.32461 46.4453L5.31875 46.6387V46.9023ZM4.58633 48.8711C4.28164 48.8711 4.1293 48.6719 4.1293 48.2734C4.1293 48.2266 4.14883 48.0742 4.18789 47.8164C4.22695 47.5547 4.24648 47.127 4.24648 46.5332V44.7168L4.25234 44.4238V43.4043L4.24648 43.1172V42.8301L4.23477 42.4023C4.23086 42.3086 4.22891 42.1465 4.22891 41.916C4.22891 41.6855 4.18984 41.4961 4.11172 41.3477C4.07266 41.2734 3.95938 41.1953 3.77188 41.1133C3.58438 41.0273 3.49063 40.9414 3.49063 40.8555C3.49063 40.7695 3.5375 40.7031 3.63125 40.6562C3.86563 40.5352 4.24648 40.4746 4.77383 40.4746C5.03555 40.4746 5.1957 40.5918 5.2543 40.8262C5.29727 40.9941 5.31875 41.543 5.31875 42.4727C5.31875 43.3984 5.39688 43.8613 5.55313 43.8613C5.57656 43.8613 5.76992 43.7949 6.1332 43.6621C6.50039 43.5293 6.85195 43.4629 7.18789 43.4629C7.84023 43.4629 8.36563 43.7188 8.76406 44.2305C9.16641 44.7422 9.36758 45.3555 9.36758 46.0703V46.2227C9.36758 46.6328 9.30117 47.0234 9.16836 47.3945C8.91836 48.0938 8.48672 48.5781 7.87344 48.8477C7.52969 49 7.17617 49.0762 6.81289 49.0762H6.67227C6.49648 49.0762 6.24258 49.0312 5.91055 48.9414C5.58242 48.8516 5.29531 48.8066 5.04922 48.8066C4.77578 48.8496 4.62148 48.8711 4.58633 48.8711ZM9.23984 43.8555C9.23984 43.6094 9.6793 43.4863 10.5582 43.4863C10.902 43.4863 11.0738 43.5547 11.0738 43.6914C11.0738 43.7305 11.0465 43.8008 10.9918 43.9023C10.9371 44.0039 10.9098 44.0801 10.9098 44.1309C10.9098 44.3926 11.2555 45.3945 11.9469 47.1367C12.0641 47.4297 12.1637 47.5762 12.2457 47.5762C12.2926 47.5762 12.4059 47.3887 12.5855 47.0137C12.7652 46.6387 12.9527 46.1445 13.148 45.5312C13.3434 44.9141 13.441 44.5195 13.441 44.3477C13.441 44.1719 13.3746 44.0117 13.2418 43.8672C13.1129 43.7227 13.0484 43.6211 13.0484 43.5625C13.0484 43.4531 13.2789 43.3984 13.7398 43.3984H14.1148C14.5875 43.3984 14.8238 43.4785 14.8238 43.6387C14.8238 43.7168 14.734 43.8555 14.5543 44.0547C14.3746 44.25 14.2516 44.416 14.1852 44.5527C14.1227 44.6895 13.9547 45.1367 13.6813 45.8945C13.4117 46.6484 13.2379 47.1309 13.1598 47.3418C12.7145 48.5566 12.3316 49.4453 12.0113 50.0078C11.4254 51.0469 10.8473 51.5664 10.277 51.5664C10.0621 51.5664 9.88438 51.5156 9.74375 51.4141C9.60703 51.3164 9.53867 51.2188 9.53867 51.1211C9.53867 50.8281 9.66758 50.6816 9.92539 50.6816L10.6109 50.7695C10.8531 50.7695 11.0855 50.5684 11.3082 50.166C11.5309 49.7637 11.6422 49.375 11.6422 49C11.6422 48.8164 11.275 47.9355 10.5406 46.3574C10.3844 46.0176 10.2535 45.7246 10.148 45.4785C10.0465 45.2324 9.96445 45.0449 9.90195 44.916C9.83945 44.7832 9.7125 44.5938 9.52109 44.3477C9.33359 44.0977 9.23984 43.9336 9.23984 43.8555ZM24.3418 41.084C24.5059 40.9824 24.8242 40.9316 25.2969 40.9316C25.7695 40.9316 26.0059 41.0312 26.0059 41.2305L25.877 41.3887C25.7012 41.5879 25.5938 41.7227 25.5547 41.793C25.4414 42.0078 25.3848 42.3184 25.3848 42.7246C25.3848 45.4004 25.4492 47.0703 25.5781 47.7344C25.6211 47.9531 25.709 48.123 25.8418 48.2441C26.1387 48.5098 26.2871 48.6543 26.2871 48.6777L26.1641 48.7598C25.9531 48.8535 25.5703 48.9004 25.0156 48.9004C24.4609 48.9004 24.127 48.832 24.0137 48.6953L23.9668 48.5723L24.0137 48.4141C24.0645 48.2461 24.1289 48.0254 24.207 47.752C24.2852 47.4785 24.3242 47.1348 24.3242 46.7207C24.3242 44.4238 24.2578 43.1035 24.125 42.7598L24.0605 42.7012C24.0098 42.7012 23.6543 43.4473 22.9941 44.9395L22.1328 46.9375C22 47.2578 21.9062 47.4766 21.8516 47.5938L21.6992 47.916C21.4922 48.3223 21.3008 48.5254 21.125 48.5254C20.9805 48.5254 20.7988 48.2969 20.5801 47.8398C20.5176 47.707 20.1523 46.8262 19.4844 45.1973C18.8203 43.5645 18.4277 42.748 18.3066 42.748L18.2363 42.8301C18.1113 43.123 18.0488 44.3652 18.0488 46.5566C18.0488 46.9238 18.1055 47.3613 18.2188 47.8691C18.3359 48.377 18.3945 48.6348 18.3945 48.6426L18.3066 48.748C18.1699 48.8574 17.9121 48.9121 17.5332 48.9121C17.1543 48.9121 16.8906 48.8906 16.7422 48.8477C16.5977 48.8008 16.5254 48.7168 16.5254 48.5957C16.5254 48.5645 16.6387 48.4609 16.8652 48.2852C17.0957 48.1055 17.2344 47.8613 17.2812 47.5527L17.3164 47.2188C17.3281 47.0703 17.3438 46.8379 17.3633 46.5215L17.4043 45.8125C17.4824 44.6094 17.5215 43.7148 17.5215 43.1289C17.5215 42.543 17.4707 42.1426 17.3691 41.9277C17.3262 41.8379 17.2148 41.7031 17.0352 41.5234C16.8594 41.3398 16.7715 41.2246 16.7715 41.1777C16.7715 41.0254 17.084 40.9492 17.709 40.9492C18.0957 40.9492 18.3926 41.0273 18.5996 41.1836C18.6973 41.2578 18.8457 41.4453 19.0449 41.7461C19.2441 42.0469 19.6055 42.8105 20.1289 44.0371C20.6523 45.2598 20.9512 45.957 21.0254 46.1289L21.166 46.4395L21.3184 46.6387C21.4082 46.6387 21.8281 45.8477 22.5781 44.2656C23.3281 42.6797 23.7695 41.7773 23.9023 41.5586C24.0352 41.3398 24.1816 41.1816 24.3418 41.084ZM26.8332 41.5234V41.3594C26.841 41.3281 26.8449 41.2832 26.8449 41.2246C26.8449 41.1621 26.9094 41.0664 27.0383 40.9375C27.1672 40.8086 27.298 40.7441 27.4309 40.7441L27.548 40.7266H27.6418C27.802 40.7266 27.9504 40.7852 28.0871 40.9023C28.2277 41.0156 28.298 41.1426 28.298 41.2832L28.3156 41.4238V41.4766L28.2922 41.6113C28.2922 41.7285 28.2199 41.8457 28.0754 41.9629C27.9348 42.0801 27.8059 42.1387 27.6887 42.1387L27.548 42.1562H27.5246L27.5012 42.1504H27.4543C27.423 42.1426 27.3996 42.1387 27.384 42.1387C27.2707 42.1387 27.1496 42.0762 27.0207 41.9512C26.8957 41.8223 26.8332 41.6797 26.8332 41.5234ZM26.7043 49.041C26.4465 49.041 26.3176 48.9629 26.3176 48.8066C26.3176 48.7051 26.4191 48.6094 26.6223 48.5195C26.8254 48.4258 26.9504 48.293 26.9973 48.1211C27.048 47.9453 27.0734 47.3359 27.0734 46.293L27.0793 46.1113V45.9297L27.0852 45.748V45.3848L27.0676 44.8457C27.0676 44.5332 27.0324 44.3359 26.9621 44.2539C26.8957 44.1719 26.7629 44.1035 26.5637 44.0488C26.3645 43.9941 26.2648 43.916 26.2648 43.8145C26.2648 43.7324 26.3078 43.666 26.3938 43.6152C26.6672 43.4512 27.1145 43.3691 27.7355 43.3691C27.9621 43.3691 28.0949 43.4492 28.134 43.6094C28.1535 43.6914 28.1633 44.4355 28.1633 45.8418C28.1633 47.248 28.1848 48.0273 28.2277 48.1797C28.2707 48.3281 28.4016 48.4473 28.6203 48.5371C28.843 48.623 28.9543 48.7012 28.9543 48.7715V48.8359C28.9543 48.9492 28.7844 49.0059 28.4445 49.0059C28.3273 49.0137 28.2414 49.0176 28.1867 49.0176L27.923 49.0234H27.6652L27.0559 49.041H26.7043ZM29.3656 48.0566C29.432 47.6582 29.4652 46.5137 29.4652 44.623C29.4652 42.7285 29.4438 41.6797 29.4008 41.4766C29.3617 41.2734 29.2543 41.1328 29.0785 41.0547C28.8246 40.9453 28.6977 40.8516 28.6977 40.7734C28.6977 40.6914 28.7465 40.627 28.8441 40.5801C29.1605 40.4277 29.6234 40.3516 30.2328 40.3516C30.4633 40.3516 30.5941 40.4707 30.6254 40.709C30.6332 40.7637 30.6371 41.3027 30.6371 42.3262L30.6313 42.6895V43.1758L30.6195 43.6562V44.1426C30.6195 46.4629 30.6332 47.7324 30.6605 47.9512C30.6918 48.166 30.7914 48.3262 30.9594 48.4316C31.268 48.627 31.4223 48.7383 31.4223 48.7656C31.4223 48.9062 31.1488 48.9766 30.602 48.9766L30.3676 48.9883L29.2953 49.0117H29.0492C28.8422 49.0117 28.7387 48.9551 28.7387 48.8418C28.7387 48.752 28.8344 48.6504 29.0258 48.5371C29.2172 48.4238 29.3305 48.2637 29.3656 48.0566ZM33.9195 46.293C33.4117 46.293 32.9996 46.416 32.6832 46.6621C32.3668 46.9082 32.2086 47.1758 32.2086 47.4648V47.6641C32.2164 47.7109 32.2203 47.75 32.2203 47.7812C32.2203 47.9688 32.3023 48.127 32.4664 48.2559C32.6344 48.3848 32.8004 48.4492 32.9645 48.4492H33.152C33.4098 48.4492 33.7008 48.3359 34.025 48.1094C34.2594 47.9453 34.3766 47.7383 34.3766 47.4883C34.3844 47.4414 34.3883 47.4062 34.3883 47.3828L34.4 47.2305V47.0488L34.4059 46.9375V46.5332C34.4059 46.3613 34.3551 46.2754 34.2535 46.2754H34.107C34.0367 46.2871 33.9742 46.293 33.9195 46.293ZM33.4215 43.293H33.568C34.3844 43.293 34.943 43.541 35.2437 44.0371C35.4273 44.3418 35.5191 45.0488 35.5191 46.1582C35.5191 47.2676 35.5348 47.875 35.566 47.9805C35.6168 48.1562 35.7281 48.2734 35.9 48.332C36.1812 48.4297 36.3219 48.4961 36.3219 48.5312V48.6191C36.3219 48.6973 36.232 48.7891 36.0523 48.8945C35.8727 49 35.607 49.0527 35.2555 49.0527C35.0523 49.0527 34.8687 48.9648 34.7047 48.7891C34.5406 48.6094 34.4332 48.5195 34.3824 48.5195C34.3785 48.5195 34.1617 48.6191 33.732 48.8184C33.3023 49.0176 32.9645 49.1172 32.7184 49.1172H32.443C32.068 49.1172 31.7516 48.9863 31.4937 48.7246C31.2398 48.459 31.1129 48.1719 31.1129 47.8633V47.7168C31.1129 47.2246 31.2984 46.8301 31.6695 46.5332C31.9234 46.3301 32.2887 46.1621 32.7652 46.0293C32.8199 46.0137 33.0348 45.9668 33.4098 45.8887C33.7848 45.8066 34.0133 45.7461 34.0953 45.707C34.3102 45.6016 34.4176 45.373 34.4176 45.0215C34.4176 44.666 34.3219 44.3867 34.1305 44.1836C33.9391 43.9766 33.6773 43.873 33.3453 43.873C33.0133 43.873 32.7242 44.0547 32.4781 44.418C32.232 44.7812 31.9762 44.9629 31.7105 44.9629C31.652 44.9629 31.5777 44.9199 31.4879 44.834C31.398 44.748 31.3531 44.6133 31.3531 44.4297C31.3531 44.1445 31.5055 43.9121 31.8102 43.7324C32.3062 43.4395 32.8434 43.293 33.4215 43.293Z"
    fill="currentColor"
  />
</svg>
