<svg width="98" height="52" viewBox="0 0 98 52" fill="none" xmlns="http://www.w3.org/2000/svg">
<path d="M13.6553 28.8955C13.7438 28.4639 13.7881 26.9863 13.7881 24.4629C13.7881 21.9395 13.5944 20.2904 13.207 19.5156C12.8197 18.7409 12.1003 18.3535 11.0488 18.3535C10.418 18.3535 9.76497 18.6025 9.08984 19.1006C8.41471 19.5876 7.96647 20.1299 7.74512 20.7275C7.52376 21.3252 7.41309 22.7197 7.41309 24.9111C7.41309 27.0915 7.42969 28.4362 7.46289 28.9453C7.50716 29.4544 7.59017 29.8529 7.71191 30.1406L7.92773 30.5557C8.10482 30.8988 8.19336 31.1478 8.19336 31.3027C8.19336 31.7122 7.34668 31.917 5.65332 31.917C3.95996 31.917 2.85872 31.7454 2.34961 31.4023L2.05078 31.0869C2.05078 30.777 2.16146 30.5114 2.38281 30.29C3.04688 29.6149 3.43978 29.1003 3.56152 28.7461C3.68327 28.3919 3.74414 26.8258 3.74414 24.0479C3.74414 21.2588 3.50618 19.4382 3.03027 18.5859L2.68164 18.1377C2.39388 17.7725 2.25 17.4958 2.25 17.3076C2.25 17.1084 2.45475 16.8815 2.86426 16.627C3.28483 16.3613 3.93229 16.2285 4.80664 16.2285C5.69206 16.2285 6.35612 16.4665 6.79883 16.9424C7.24154 17.4072 7.55697 17.6396 7.74512 17.6396L8.24316 17.4072L9.50488 16.6602C10.5342 16.1178 11.5801 15.8467 12.6426 15.8467C13.7051 15.8467 14.7178 16.1732 15.6807 16.8262C16.6436 17.4681 17.2467 17.7891 17.4902 17.7891L18.0547 17.5234L18.6689 17.1582C19.1891 16.8483 19.748 16.5716 20.3457 16.3281C20.9212 16.0846 21.6849 15.9629 22.6367 15.9629C24.4518 15.9629 25.7357 16.7155 26.4883 18.2207C27.0417 19.3275 27.3184 21.9173 27.3184 25.9902C27.3184 27.7389 27.3737 28.7572 27.4844 29.0449C27.5951 29.3216 27.8939 29.6592 28.3809 30.0576C28.8678 30.4561 29.1113 30.6885 29.1113 30.7549V31.1533L28.7959 31.4521C28.2646 31.7731 26.9144 31.9336 24.7451 31.9336C23.7048 31.9336 23.1846 31.679 23.1846 31.1699C23.1846 31.1146 23.2565 30.8656 23.4004 30.4229C23.5553 29.9801 23.6439 29.626 23.666 29.3604C23.6992 29.0837 23.7158 27.6725 23.7158 25.127C23.7158 22.5814 23.5885 20.9876 23.334 20.3457C23.0905 19.6927 22.7806 19.1947 22.4043 18.8516C22.0391 18.4974 21.4801 18.3203 20.7275 18.3203C19.9749 18.3203 19.3385 18.5251 18.8184 18.9346C18.2982 19.3441 17.9329 19.8034 17.7227 20.3125C17.5124 20.8105 17.4072 22.3268 17.4072 24.8613C17.4072 27.3958 17.4847 28.8623 17.6396 29.2607C17.7946 29.6481 18.0824 30.0299 18.5029 30.4062C18.9346 30.7826 19.1504 31.0316 19.1504 31.1533C19.1504 31.7067 18.182 31.9834 16.2451 31.9834H13.9209C12.7588 31.9834 12.1777 31.8174 12.1777 31.4854C12.1777 31.1423 12.3216 30.8158 12.6094 30.5059C13.2292 29.8529 13.5778 29.3161 13.6553 28.8955ZM33.4311 18.2539C33.4311 19.4382 34.3497 22.2493 36.1869 26.6875C36.4415 27.3073 36.6462 27.6172 36.8012 27.6172C36.9561 27.6172 37.2439 27.1689 37.6645 26.2725C39.1918 23.0407 39.9555 20.6003 39.9555 18.9512C39.9555 18.4753 39.878 18.0879 39.723 17.7891L39.5404 17.4902C39.2748 17.1361 39.142 16.887 39.142 16.7432C39.142 16.3115 39.8448 16.0957 41.2504 16.0957H42.3129C43.6521 16.0957 44.3217 16.3503 44.3217 16.8594C44.3217 17.1471 44.045 17.5898 43.4916 18.1875C42.9493 18.7741 42.5564 19.3441 42.3129 19.8975C42.0694 20.4508 41.1785 22.764 39.64 26.8369C38.1127 30.8988 36.9285 33.6712 36.0873 35.1543C35.2462 36.6484 34.4604 37.722 33.7299 38.375C33.0105 39.028 32.2689 39.3545 31.5053 39.3545H31.0736C30.4981 39.3545 30.0056 39.1885 29.5961 38.8564C29.1977 38.5355 28.9984 38.1979 28.9984 37.8438C28.9984 37.5007 29.1368 37.2184 29.4135 36.9971C29.7012 36.7868 30.0775 36.6816 30.5424 36.6816L30.9242 36.7148C31.0902 36.7259 31.3448 36.7314 31.6879 36.7314C32.4626 36.7314 33.1765 36.2334 33.8295 35.2373C34.4825 34.2412 34.809 33.234 34.809 32.2158C34.809 31.1976 33.2318 27.3516 30.0775 20.6777C29.7898 20.069 29.3637 19.4382 28.7992 18.7852C28.2458 18.1322 27.9691 17.6784 27.9691 17.4238C27.9691 17.0033 28.2624 16.71 28.849 16.5439C29.4356 16.3669 30.3764 16.2783 31.6713 16.2783C32.9773 16.2783 33.6303 16.5605 33.6303 17.125C33.4975 17.7005 33.4311 18.0768 33.4311 18.2539ZM43.1629 31.4189C43.1629 31.1865 43.4119 30.8877 43.91 30.5225C44.4191 30.1572 44.7622 29.5872 44.9393 28.8125C45.1163 28.0267 45.2049 25.0605 45.2049 19.9141C45.2049 14.7676 45.144 11.8512 45.0223 11.165C44.9116 10.4788 44.6294 9.98633 44.1756 9.6875C43.4451 9.21159 43.0799 8.91829 43.0799 8.80762V8.6084C43.0799 8.42025 43.2404 8.25423 43.5613 8.11035C44.5574 7.67871 45.8855 7.46289 47.5457 7.46289H47.8777C48.4422 7.46289 48.7687 7.84473 48.8572 8.6084C48.8683 8.70801 48.8738 9.54362 48.8738 11.1152V14.6846L48.8572 15.3652V16.4111L48.8406 17.0918C48.8406 17.0918 48.8406 18.846 48.8406 22.3545C48.8406 25.6305 48.8904 27.6615 48.99 28.4473C49.1007 29.222 49.3497 29.7865 49.7371 30.1406C49.7814 30.1738 50.0138 30.3177 50.4344 30.5723C50.8549 30.8268 51.0652 31.0869 51.0652 31.3525C51.0652 31.7399 50.379 31.9336 49.0066 31.9336L48.326 31.9668H47.6453L44.9227 32.0166H44.574C43.6333 32.0166 43.1629 31.8174 43.1629 31.4189ZM66.9396 30.1904C67.4266 30.5667 67.6701 30.8379 67.6701 31.0039C67.6701 31.1589 67.5871 31.3083 67.4211 31.4521C66.9452 31.8838 65.927 32.0996 64.3664 32.0996C63.8573 32.0996 63.4589 32.0166 63.1711 31.8506C62.8944 31.6735 62.6454 31.3581 62.424 30.9043C62.2137 30.4505 62.0367 30.2236 61.8928 30.2236C61.7489 30.2347 61.4279 30.4173 60.9299 30.7715C59.5354 31.7786 58.2017 32.2822 56.9289 32.2822C56.9178 32.2822 56.9012 32.2822 56.8791 32.2822H56.3811C54.5549 32.2822 53.2323 31.5075 52.4133 29.958C51.9927 29.1501 51.7769 27.1745 51.7658 24.0312C51.7658 20.877 51.716 19.1449 51.6164 18.835C51.5168 18.514 51.1626 18.2152 50.5539 17.9385C49.9562 17.6507 49.6574 17.4294 49.6574 17.2744C49.6574 16.8649 49.8511 16.5993 50.2385 16.4775C51.1018 16.2008 52.203 16.0625 53.5422 16.0625C54.3169 16.0625 54.8094 16.3779 55.0197 17.0088C55.2964 17.8167 55.4348 19.748 55.4348 22.8027C55.4348 25.8464 55.5676 27.6947 55.8332 28.3477C56.287 29.4655 57.1115 30.0244 58.3068 30.0244C58.9266 30.0244 59.5409 29.8639 60.1496 29.543C60.7694 29.222 61.2508 28.7904 61.5939 28.248C61.937 27.7057 62.1086 26.2171 62.1086 23.7822C62.1086 21.3363 62.0256 19.7979 61.8596 19.167C61.7046 18.5361 61.4611 18.0436 61.1291 17.6895C60.7971 17.3242 60.6311 17.0365 60.6311 16.8262C60.6311 16.3392 61.9315 16.0957 64.5324 16.0957C65.0747 16.0957 65.4289 16.2174 65.5949 16.4609C65.7609 16.6934 65.8439 17.125 65.8439 17.7559L65.7941 18.7354L65.7111 23.1514C65.7111 26.029 65.7941 27.8275 65.9602 28.5469C66.1262 29.2552 66.4527 29.8031 66.9396 30.1904ZM79.1285 20.6113C78.6637 20.6113 78.0162 20.1299 77.1861 19.167C76.3671 18.2041 75.4153 17.7227 74.3307 17.7227C73.2571 17.7227 72.3551 18.2594 71.6246 19.333C70.8941 20.3955 70.5289 21.9062 70.5289 23.8652C70.5289 25.8242 70.9771 27.3571 71.8736 28.4639C72.7812 29.5596 73.9599 30.1074 75.4098 30.1074C76.2066 30.1074 76.8707 30.0078 77.402 29.8086C77.9443 29.6094 78.4423 29.3991 78.8961 29.1777C79.3609 28.9453 79.6874 28.8291 79.8756 28.8291C80.1966 28.8291 80.357 29.0394 80.357 29.46C80.357 30.1019 79.7096 30.7383 78.4146 31.3691C77.1197 32 75.8635 32.3154 74.6461 32.3154C72.2776 32.3154 70.374 31.5739 68.9352 30.0908C68.3486 29.4821 67.8561 28.7018 67.4576 27.75C67.0592 26.7871 66.86 25.7578 66.86 24.6621V23.8486C66.86 23.8265 66.86 23.7988 66.86 23.7656C66.86 23.7435 66.86 23.7214 66.86 23.6992C66.86 22.7363 67.0758 21.7402 67.5074 20.7109C68.3596 18.6966 69.732 17.3021 71.6246 16.5273C72.7203 16.0846 73.8105 15.8633 74.8951 15.8633H75.277C76.7711 15.8633 78.0383 16.1234 79.0787 16.6436C79.9199 17.0641 80.3404 17.7669 80.3404 18.752C80.3404 19.4049 80.2076 19.8809 79.942 20.1797C79.6874 20.4674 79.4163 20.6113 79.1285 20.6113ZM86.4863 24.9609C85.8112 24.9609 85.4736 25.9349 85.4736 27.8828C85.4736 28.569 85.6341 29.2386 85.9551 29.8916L86.4033 30.6553C86.5583 30.932 86.6357 31.1312 86.6357 31.2529C86.6357 31.6514 85.5234 31.8506 83.2988 31.8506C81.0742 31.8506 79.9619 31.6624 79.9619 31.2861C79.9619 31.1865 80.1445 30.8877 80.5098 30.3896C80.8861 29.8805 81.1572 29.2884 81.3232 28.6133C81.5003 27.9271 81.5889 26.3389 81.5889 23.8486L81.6055 23.2178C81.6276 22.6533 81.6387 22.2327 81.6387 21.9561L81.6719 20.6943L81.6885 19.416V16.8428C81.6885 13.6442 81.6276 11.7572 81.5059 11.1816C81.3952 10.5951 81.1904 10.1523 80.8916 9.85352L80.5264 9.57129L80.1279 9.32227C79.807 9.08984 79.6465 8.87402 79.6465 8.6748C79.6465 8.46452 79.7793 8.2819 80.0449 8.12695C80.7975 7.69531 81.9596 7.47949 83.5312 7.47949H84.0957C84.7266 7.47949 85.1195 7.92773 85.2744 8.82422C85.3298 9.15625 85.3574 11.6354 85.3574 16.2617L85.3408 18.1709C85.3408 19.6872 85.3464 20.4951 85.3574 20.5947C85.4792 21.6462 85.7669 22.1719 86.2207 22.1719C86.6745 22.1719 87.4548 21.5742 88.5615 20.3789C89.6683 19.1725 90.2217 18.3148 90.2217 17.8057L90.1719 17.208C90.1719 16.8317 90.3158 16.5661 90.6035 16.4111C90.9023 16.2562 91.5166 16.1787 92.4463 16.1787C94.5602 16.1787 95.6172 16.4056 95.6172 16.8594C95.6172 16.8704 94.6377 17.6618 92.6787 19.2334C90.7197 20.805 89.7402 21.9284 89.7402 22.6035C89.7402 23.2786 91.085 25.1878 93.7744 28.3311C94.361 29.0173 95.0029 29.6094 95.7002 30.1074C96.4085 30.6055 96.7627 30.9375 96.7627 31.1035C96.7627 31.6458 95.9437 31.917 94.3057 31.917H93.0938C92.0312 31.917 91.2676 31.6126 90.8027 31.0039L90.1387 29.3936C89.862 28.7295 89.4027 27.9437 88.7607 27.0361C87.7757 25.6527 87.0176 24.9609 86.4863 24.9609Z" fill="black"/>
<path d="M34.3188 46.9023C34.3188 47.5664 34.391 47.9883 34.5355 48.168C34.7543 48.4414 35.102 48.5781 35.5785 48.5781H35.7719C35.9203 48.5781 36.0961 48.5215 36.2992 48.4082C36.5063 48.2949 36.6723 48.1328 36.7973 47.9219C37.0551 47.4844 37.184 46.9492 37.184 46.3164V46.2461L37.1781 46.1758C37.1781 45.5 37.0473 44.9629 36.7855 44.5645C36.5277 44.1621 36.184 43.9609 35.7543 43.9609H35.6957C35.4535 43.9609 35.2133 44.0273 34.975 44.1602C34.7367 44.2891 34.5688 44.4434 34.4711 44.623C34.3734 44.7988 34.3246 45.4062 34.3246 46.4453L34.3188 46.6387V46.9023ZM33.5863 48.8711C33.2816 48.8711 33.1293 48.6719 33.1293 48.2734C33.1293 48.2266 33.1488 48.0742 33.1879 47.8164C33.227 47.5547 33.2465 47.127 33.2465 46.5332V44.7168L33.2523 44.4238V43.4043L33.2465 43.1172V42.8301L33.2348 42.4023C33.2309 42.3086 33.2289 42.1465 33.2289 41.916C33.2289 41.6855 33.1898 41.4961 33.1117 41.3477C33.0727 41.2734 32.9594 41.1953 32.7719 41.1133C32.5844 41.0273 32.4906 40.9414 32.4906 40.8555C32.4906 40.7695 32.5375 40.7031 32.6313 40.6562C32.8656 40.5352 33.2465 40.4746 33.7738 40.4746C34.0355 40.4746 34.1957 40.5918 34.2543 40.8262C34.2973 40.9941 34.3188 41.543 34.3188 42.4727C34.3188 43.3984 34.3969 43.8613 34.5531 43.8613C34.5766 43.8613 34.7699 43.7949 35.1332 43.6621C35.5004 43.5293 35.852 43.4629 36.1879 43.4629C36.8402 43.4629 37.3656 43.7188 37.7641 44.2305C38.1664 44.7422 38.3676 45.3555 38.3676 46.0703V46.2227C38.3676 46.6328 38.3012 47.0234 38.1684 47.3945C37.9184 48.0938 37.4867 48.5781 36.8734 48.8477C36.5297 49 36.1762 49.0762 35.8129 49.0762H35.6723C35.4965 49.0762 35.2426 49.0312 34.9105 48.9414C34.5824 48.8516 34.2953 48.8066 34.0492 48.8066C33.7758 48.8496 33.6215 48.8711 33.5863 48.8711ZM38.2398 43.8555C38.2398 43.6094 38.6793 43.4863 39.5582 43.4863C39.902 43.4863 40.0738 43.5547 40.0738 43.6914C40.0738 43.7305 40.0465 43.8008 39.9918 43.9023C39.9371 44.0039 39.9098 44.0801 39.9098 44.1309C39.9098 44.3926 40.2555 45.3945 40.9469 47.1367C41.0641 47.4297 41.1637 47.5762 41.2457 47.5762C41.2926 47.5762 41.4059 47.3887 41.5855 47.0137C41.7652 46.6387 41.9527 46.1445 42.148 45.5312C42.3434 44.9141 42.441 44.5195 42.441 44.3477C42.441 44.1719 42.3746 44.0117 42.2418 43.8672C42.1129 43.7227 42.0484 43.6211 42.0484 43.5625C42.0484 43.4531 42.2789 43.3984 42.7398 43.3984H43.1148C43.5875 43.3984 43.8238 43.4785 43.8238 43.6387C43.8238 43.7168 43.734 43.8555 43.5543 44.0547C43.3746 44.25 43.2516 44.416 43.1852 44.5527C43.1227 44.6895 42.9547 45.1367 42.6813 45.8945C42.4117 46.6484 42.2379 47.1309 42.1598 47.3418C41.7145 48.5566 41.3316 49.4453 41.0113 50.0078C40.4254 51.0469 39.8473 51.5664 39.277 51.5664C39.0621 51.5664 38.8844 51.5156 38.7438 51.4141C38.607 51.3164 38.5387 51.2188 38.5387 51.1211C38.5387 50.8281 38.6676 50.6816 38.9254 50.6816L39.6109 50.7695C39.8531 50.7695 40.0855 50.5684 40.3082 50.166C40.5309 49.7637 40.6422 49.375 40.6422 49C40.6422 48.8164 40.275 47.9355 39.5406 46.3574C39.3844 46.0176 39.2535 45.7246 39.148 45.4785C39.0465 45.2324 38.9645 45.0449 38.902 44.916C38.8395 44.7832 38.7125 44.5938 38.5211 44.3477C38.3336 44.0977 38.2398 43.9336 38.2398 43.8555ZM53.3418 41.084C53.5059 40.9824 53.8242 40.9316 54.2969 40.9316C54.7695 40.9316 55.0059 41.0312 55.0059 41.2305L54.877 41.3887C54.7012 41.5879 54.5938 41.7227 54.5547 41.793C54.4414 42.0078 54.3848 42.3184 54.3848 42.7246C54.3848 45.4004 54.4492 47.0703 54.5781 47.7344C54.6211 47.9531 54.709 48.123 54.8418 48.2441C55.1387 48.5098 55.2871 48.6543 55.2871 48.6777L55.1641 48.7598C54.9531 48.8535 54.5703 48.9004 54.0156 48.9004C53.4609 48.9004 53.127 48.832 53.0137 48.6953L52.9668 48.5723L53.0137 48.4141C53.0645 48.2461 53.1289 48.0254 53.207 47.752C53.2852 47.4785 53.3242 47.1348 53.3242 46.7207C53.3242 44.4238 53.2578 43.1035 53.125 42.7598L53.0605 42.7012C53.0098 42.7012 52.6543 43.4473 51.9941 44.9395L51.1328 46.9375C51 47.2578 50.9062 47.4766 50.8516 47.5938L50.6992 47.916C50.4922 48.3223 50.3008 48.5254 50.125 48.5254C49.9805 48.5254 49.7988 48.2969 49.5801 47.8398C49.5176 47.707 49.1523 46.8262 48.4844 45.1973C47.8203 43.5645 47.4277 42.748 47.3066 42.748L47.2363 42.8301C47.1113 43.123 47.0488 44.3652 47.0488 46.5566C47.0488 46.9238 47.1055 47.3613 47.2188 47.8691C47.3359 48.377 47.3945 48.6348 47.3945 48.6426L47.3066 48.748C47.1699 48.8574 46.9121 48.9121 46.5332 48.9121C46.1543 48.9121 45.8906 48.8906 45.7422 48.8477C45.5977 48.8008 45.5254 48.7168 45.5254 48.5957C45.5254 48.5645 45.6387 48.4609 45.8652 48.2852C46.0957 48.1055 46.2344 47.8613 46.2812 47.5527L46.3164 47.2188C46.3281 47.0703 46.3438 46.8379 46.3633 46.5215L46.4043 45.8125C46.4824 44.6094 46.5215 43.7148 46.5215 43.1289C46.5215 42.543 46.4707 42.1426 46.3691 41.9277C46.3262 41.8379 46.2148 41.7031 46.0352 41.5234C45.8594 41.3398 45.7715 41.2246 45.7715 41.1777C45.7715 41.0254 46.084 40.9492 46.709 40.9492C47.0957 40.9492 47.3926 41.0273 47.5996 41.1836C47.6973 41.2578 47.8457 41.4453 48.0449 41.7461C48.2441 42.0469 48.6055 42.8105 49.1289 44.0371C49.6523 45.2598 49.9512 45.957 50.0254 46.1289L50.166 46.4395L50.3184 46.6387C50.4082 46.6387 50.8281 45.8477 51.5781 44.2656C52.3281 42.6797 52.7695 41.7773 52.9023 41.5586C53.0352 41.3398 53.1816 41.1816 53.3418 41.084ZM55.8332 41.5234V41.3594C55.841 41.3281 55.8449 41.2832 55.8449 41.2246C55.8449 41.1621 55.9094 41.0664 56.0383 40.9375C56.1672 40.8086 56.298 40.7441 56.4309 40.7441L56.548 40.7266H56.6418C56.802 40.7266 56.9504 40.7852 57.0871 40.9023C57.2277 41.0156 57.298 41.1426 57.298 41.2832L57.3156 41.4238V41.4766L57.2922 41.6113C57.2922 41.7285 57.2199 41.8457 57.0754 41.9629C56.9348 42.0801 56.8059 42.1387 56.6887 42.1387L56.548 42.1562H56.5246L56.5012 42.1504H56.4543C56.423 42.1426 56.3996 42.1387 56.384 42.1387C56.2707 42.1387 56.1496 42.0762 56.0207 41.9512C55.8957 41.8223 55.8332 41.6797 55.8332 41.5234ZM55.7043 49.041C55.4465 49.041 55.3176 48.9629 55.3176 48.8066C55.3176 48.7051 55.4191 48.6094 55.6223 48.5195C55.8254 48.4258 55.9504 48.293 55.9973 48.1211C56.048 47.9453 56.0734 47.3359 56.0734 46.293L56.0793 46.1113V45.9297L56.0852 45.748V45.3848L56.0676 44.8457C56.0676 44.5332 56.0324 44.3359 55.9621 44.2539C55.8957 44.1719 55.7629 44.1035 55.5637 44.0488C55.3645 43.9941 55.2648 43.916 55.2648 43.8145C55.2648 43.7324 55.3078 43.666 55.3938 43.6152C55.6672 43.4512 56.1145 43.3691 56.7355 43.3691C56.9621 43.3691 57.0949 43.4492 57.134 43.6094C57.1535 43.6914 57.1633 44.4355 57.1633 45.8418C57.1633 47.248 57.1848 48.0273 57.2277 48.1797C57.2707 48.3281 57.4016 48.4473 57.6203 48.5371C57.843 48.623 57.9543 48.7012 57.9543 48.7715V48.8359C57.9543 48.9492 57.7844 49.0059 57.4445 49.0059C57.3273 49.0137 57.2414 49.0176 57.1867 49.0176L56.923 49.0234H56.6652L56.0559 49.041H55.7043ZM58.3656 48.0566C58.432 47.6582 58.4652 46.5137 58.4652 44.623C58.4652 42.7285 58.4438 41.6797 58.4008 41.4766C58.3617 41.2734 58.2543 41.1328 58.0785 41.0547C57.8246 40.9453 57.6977 40.8516 57.6977 40.7734C57.6977 40.6914 57.7465 40.627 57.8441 40.5801C58.1605 40.4277 58.6234 40.3516 59.2328 40.3516C59.4633 40.3516 59.5941 40.4707 59.6254 40.709C59.6332 40.7637 59.6371 41.3027 59.6371 42.3262L59.6313 42.6895V43.1758L59.6195 43.6562V44.1426C59.6195 46.4629 59.6332 47.7324 59.6605 47.9512C59.6918 48.166 59.7914 48.3262 59.9594 48.4316C60.268 48.627 60.4223 48.7383 60.4223 48.7656C60.4223 48.9062 60.1488 48.9766 59.602 48.9766L59.3676 48.9883L58.2953 49.0117H58.0492C57.8422 49.0117 57.7387 48.9551 57.7387 48.8418C57.7387 48.752 57.8344 48.6504 58.0258 48.5371C58.2172 48.4238 58.3305 48.2637 58.3656 48.0566ZM62.9195 46.293C62.4117 46.293 61.9996 46.416 61.6832 46.6621C61.3668 46.9082 61.2086 47.1758 61.2086 47.4648V47.6641C61.2164 47.7109 61.2203 47.75 61.2203 47.7812C61.2203 47.9688 61.3023 48.127 61.4664 48.2559C61.6344 48.3848 61.8004 48.4492 61.9645 48.4492H62.152C62.4098 48.4492 62.7008 48.3359 63.025 48.1094C63.2594 47.9453 63.3766 47.7383 63.3766 47.4883C63.3844 47.4414 63.3883 47.4062 63.3883 47.3828L63.4 47.2305V47.0488L63.4059 46.9375V46.5332C63.4059 46.3613 63.3551 46.2754 63.2535 46.2754H63.107C63.0367 46.2871 62.9742 46.293 62.9195 46.293ZM62.4215 43.293H62.568C63.3844 43.293 63.943 43.541 64.2437 44.0371C64.4273 44.3418 64.5191 45.0488 64.5191 46.1582C64.5191 47.2676 64.5348 47.875 64.566 47.9805C64.6168 48.1562 64.7281 48.2734 64.9 48.332C65.1812 48.4297 65.3219 48.4961 65.3219 48.5312V48.6191C65.3219 48.6973 65.232 48.7891 65.0523 48.8945C64.8727 49 64.607 49.0527 64.2555 49.0527C64.0523 49.0527 63.8687 48.9648 63.7047 48.7891C63.5406 48.6094 63.4332 48.5195 63.3824 48.5195C63.3785 48.5195 63.1617 48.6191 62.732 48.8184C62.3023 49.0176 61.9645 49.1172 61.7184 49.1172H61.443C61.068 49.1172 60.7516 48.9863 60.4937 48.7246C60.2398 48.459 60.1129 48.1719 60.1129 47.8633V47.7168C60.1129 47.2246 60.2984 46.8301 60.6695 46.5332C60.9234 46.3301 61.2887 46.1621 61.7652 46.0293C61.8199 46.0137 62.0348 45.9668 62.4098 45.8887C62.7848 45.8066 63.0133 45.7461 63.0953 45.707C63.3102 45.6016 63.4176 45.373 63.4176 45.0215C63.4176 44.666 63.3219 44.3867 63.1305 44.1836C62.9391 43.9766 62.6773 43.873 62.3453 43.873C62.0133 43.873 61.7242 44.0547 61.4781 44.418C61.232 44.7812 60.9762 44.9629 60.7105 44.9629C60.652 44.9629 60.5777 44.9199 60.4879 44.834C60.398 44.748 60.3531 44.6133 60.3531 44.4297C60.3531 44.1445 60.5055 43.9121 60.8102 43.7324C61.3062 43.4395 61.8434 43.293 62.4215 43.293Z" fill="black"/>
</svg>
