<svg
  width="22"
  height="22"
  viewBox="0 0 22 22"
  xmlns="http://www.w3.org/2000/svg"
>
  <path
    d="M8.08004 12.8063C9.42389 14.1502 11.6027 14.1502 12.9467 12.8063L8.08004 7.9397C6.73618 9.28355 6.73618 11.4623 8.08004 12.8063ZM10.4411 11.9736H11.2578V12.8723H10.4411V11.9736ZM9.77192 11.6918L8.9807 12.483L8.40324 11.9056L9.19446 11.1144L9.77192 11.6918ZM8.91236 10.4452H7.97704V9.62845H8.91236V10.4452Z"
    fill="black"
  />
  <path
    d="M6.28093 0.544434C4.41499 0.544434 2.90234 2.05713 2.90234 3.92302C2.90234 5.78891 4.41504 7.3016 6.28093 7.3016C8.14687 7.3016 9.65951 5.78891 9.65951 3.92302C9.65943 2.05708 8.14682 0.544434 6.28093 0.544434ZM6.28075 5.84032C5.22366 5.84032 4.36386 4.98024 4.36386 3.92316C4.36386 2.86607 5.22366 2.00626 6.28075 2.00626C7.33784 2.00626 8.19792 2.86607 8.19792 3.92316C8.19792 4.98024 7.33784 5.84032 6.28075 5.84032Z"
    fill="black"
  />
  <path
    d="M6.28179 2.82275C5.67509 2.82275 5.18164 3.3162 5.18164 3.9229C5.18164 4.52961 5.67509 5.02333 6.28179 5.02333C6.88849 5.02333 7.38221 4.52961 7.38221 3.9229C7.38221 3.3162 6.88849 2.82275 6.28179 2.82275Z"
    fill="black"
  />
  <path
    d="M12.5035 0C11.332 0 10.3789 0.953137 10.3789 2.12455C10.3789 3.29596 11.332 4.2491 12.5035 4.2491C13.6749 4.2491 14.628 3.29596 14.628 2.12455C14.628 0.953137 13.6749 0 12.5035 0ZM12.5035 3.16011C11.9324 3.16011 11.4679 2.69563 11.4679 2.12455C11.4679 1.55346 11.9324 1.08899 12.5035 1.08899C13.0745 1.08899 13.539 1.55346 13.539 2.12455C13.539 2.69563 13.0745 3.16011 12.5035 3.16011Z"
    fill="black"
  />
  <path d="M15.7344 0.544434H16.8234V3.33088H15.7344V0.544434Z" fill="black" />
  <path
    d="M17.4902 3.5431L19.4606 1.57275L20.2305 2.34271L18.2602 4.31306L17.4902 3.5431Z"
    fill="black"
  />
  <path
    d="M11.8292 5.87022C10.7757 7.12421 10.9142 8.99471 12.0723 10.1529C12.4799 10.5606 13.1409 10.5606 13.5485 10.1529L14.2195 9.48194L14.9582 10.3165C15.2293 10.6109 15.6912 10.6204 15.9742 10.3373L16.6935 9.61806C16.9765 9.33499 16.9671 8.87329 16.6726 8.60201L15.8381 7.86343L16.509 7.19248C16.9167 6.78481 16.9167 6.12386 16.509 5.71622L16.4559 5.66304C15.165 4.37225 13.0294 4.44138 11.8293 5.87024L11.8292 5.87022Z"
    fill="black"
  />
  <path
    d="M3.81539 17.9031C4.0941 18.2247 4.24752 18.6363 4.24752 19.0622V21.7796H9.1162V15.5522C9.1162 15.2472 8.99771 14.9606 8.78227 14.7452L4.89912 10.8616C4.46416 10.4265 3.70511 10.4265 3.2699 10.8616C3.06244 11.0692 2.95103 11.3367 2.93499 11.6089L2.93402 11.6311C2.92205 11.9411 3.0338 12.2552 3.26981 12.4913L5.94668 15.1684L5.50223 15.6129L2.82537 12.9359C2.45892 12.5691 2.28609 12.0812 2.3063 11.6L2.30382 5.92959C2.30382 5.30658 1.84804 4.77529 1.26606 4.71973C0.935509 4.68827 0.620542 4.79266 0.377176 5.01369C0.137462 5.2317 0 5.5425 0 5.86641V12.5315C0 13.1563 0.225278 13.7601 0.634086 14.2321L3.81539 17.9031Z"
    fill="black"
  />
  <path
    d="M12.998 14.7454C12.7826 14.9608 12.6641 15.2474 12.6641 15.5524V21.7796H17.5327V19.0621C17.5327 18.6363 17.6862 18.2246 17.9649 17.903L21.1459 14.2318C21.5547 13.7598 21.78 13.1559 21.78 12.5311V5.86605C21.78 5.54214 21.6425 5.23132 21.4028 5.01332C21.1593 4.7923 20.8445 4.6879 20.5139 4.71936C19.9319 4.77493 19.4761 5.30621 19.4761 5.92923L19.4736 11.5997C19.4939 12.0807 19.3211 12.5688 18.9546 12.9355L16.2777 15.6126L15.8333 15.168L18.5101 12.4909C18.7461 12.2549 18.8579 11.9408 18.8459 11.6307L18.8449 11.6085C18.829 11.3364 18.7176 11.0688 18.51 10.8613C18.0748 10.4261 17.3158 10.4261 16.8808 10.8613L12.998 14.7454Z"
    fill="black"
  />
</svg>
