<svg width="35" height="34" viewBox="0 0 35 34" fill="none" xmlns="http://www.w3.org/2000/svg">
<circle cx="17.2957" cy="17" r="17" fill="url(#paint0_radial_1074_5507)"/>
<path d="M16.2334 22.1924C16.0807 22.1918 15.93 22.1578 15.7918 22.0928C15.6536 22.0279 15.5313 21.9335 15.4333 21.8163L12.529 18.328C12.4428 18.2256 12.3782 18.1069 12.3391 17.979C12.2999 17.851 12.2871 17.7165 12.3013 17.5834C12.3155 17.4504 12.3564 17.3216 12.4217 17.2048C12.487 17.088 12.5752 16.9856 12.681 16.9038C12.8964 16.7361 13.1683 16.6582 13.4397 16.6865C13.7112 16.7149 13.9612 16.8472 14.1372 17.0558L16.1454 19.4561L21.594 11.4552C21.7483 11.2303 21.9842 11.0744 22.2517 11.0206C22.5191 10.9668 22.7969 11.0194 23.0262 11.1672C23.1431 11.2377 23.2442 11.3316 23.3231 11.4431C23.402 11.5545 23.4571 11.681 23.4849 11.8147C23.5127 11.9483 23.5126 12.0863 23.4846 12.22C23.4566 12.3536 23.4013 12.48 23.3222 12.5913L17.0975 21.7363C17.0081 21.8687 16.8894 21.9786 16.7507 22.0577C16.612 22.1368 16.4569 22.1829 16.2974 22.1924H16.2334Z" fill="white"/>
<defs>
<radialGradient id="paint0_radial_1074_5507" cx="0" cy="0" r="1" gradientUnits="userSpaceOnUse" gradientTransform="translate(17.2957 17) rotate(90) scale(17)">
<stop stop-color="#49F6AD"/>
<stop offset="1" stop-color="#F8FFF8"/>
</radialGradient>
</defs>
</svg>
