<?xml version="1.0" encoding="UTF-8"?>
<svg
  xmlns="http://www.w3.org/2000/svg"
  viewBox="0 0 2834.65 1700.79"
  width="2400"
  height="1440"
>
  <path fill="#ff5b24" d="M0 0h2834.65v1700.79H0z" />
  <path
    fill="#fff"
    d="M820.38 650.27l-69.91 204.24-69.9-204.24h-80.88L720.32 953.2h60.31l120.62-302.93h-80.87z"
  />
  <circle cx="1135.64" cy="736.62" r="41.12" fill="#fff" />
  <path
    fill="#fff"
    d="M1237.07 832.57c-13.71-10.97-32.9-6.85-47.98 12.34-27.41 35.64-56.2 60.31-106.92 60.31s-93.21-31.53-123.36-76.76c-12.34-19.19-32.9-23.3-46.6-13.71-13.71 9.6-16.45 28.79-4.11 46.6 42.49 67.17 104.17 105.54 174.08 105.54 64.42 0 115.14-31.53 154.89-83.61 15.08-19.19 13.71-39.75 0-50.72zM1468.72 642.05c-46.6 0-78.13 20.56-98.69 49.35v-41.12h-75.39v408.47h74.02v-145.3c24.67 34.27 57.57 47.98 93.21 47.98 68.54 0 134.33-53.46 134.33-164.49s-68.54-154.89-127.48-154.89zm-23.3 253.58c-39.75 0-75.39-32.9-75.39-94.58s35.64-93.21 75.39-93.21 76.76 30.16 76.76 93.21-38.38 94.58-76.76 94.58zM1825.11 642.05c-46.6 0-78.13 20.56-98.69 49.35v-41.12h-75.39v408.47h74.02v-145.3c24.67 34.27 57.57 47.98 93.21 47.98 68.54 0 134.33-53.46 134.33-164.49s-68.54-154.89-127.48-154.89zm-23.3 253.58c-39.75 0-75.39-32.9-75.39-94.58s35.64-93.21 75.39-93.21 76.76 30.16 76.76 93.21-38.38 94.58-76.76 94.58zM2156.82 776.38l-50.72-9.6c-28.78-5.48-38.38-19.19-38.38-32.9 0-17.82 19.19-28.79 43.86-28.79 32.9 0 54.83 12.34 56.2 47.97l67.16-10.97c-19.19-71.28-63.05-100.06-124.74-100.06-49.34 0-111.03 28.78-112.4 97.32 0 43.86 30.16 78.13 79.5 87.73l46.6 8.22c31.53 5.48 41.12 17.82 41.12 34.27 0 17.82-19.19 28.79-47.97 28.79-38.38 0-61.68-13.71-65.79-52.09l-67.16 10.97c9.6 74.02 75.39 104.17 134.33 104.17s115.14-32.9 115.14-98.69c0-43.86-27.41-76.76-76.76-86.35z"
  />
</svg>
