<svg width="72" height="51" viewBox="0 0 72 51" fill="none" xmlns="http://www.w3.org/2000/svg">
<path d="M70.5588 24.9354C69.8402 24.9383 69.1188 24.8929 68.4059 24.7994C65.4199 24.4424 62.5799 23.3175 60.1724 21.5352L57.5042 19.495C57.0977 19.1918 56.5366 19.1918 56.13 19.495L53.4618 21.5352C50.4615 23.7482 46.817 24.9383 43.0751 24.9354C42.4424 24.9354 41.93 25.4426 41.93 26.0689V27.871C41.9185 32.6512 43.2583 37.338 45.7977 41.4038C48.3371 45.4696 51.9759 48.7513 56.3017 50.8789C56.6252 51.0404 57.0088 51.0404 57.3323 50.8789C59.2733 49.924 61.0856 48.7311 62.726 47.3313C65.5145 44.9284 67.7562 41.9702 69.3107 38.6491C70.8968 35.2744 71.7155 31.5936 71.7041 27.8706V26.0684C71.7041 25.7681 71.5839 25.479 71.3691 25.2665C71.1544 25.054 70.8623 24.9354 70.5588 24.9354ZM63.3557 29.7978C63.5733 30.0103 63.6936 30.2993 63.6936 30.6025C63.6936 30.9057 63.5733 31.1947 63.3557 31.4073L56.4848 38.2078C56.27 38.4231 55.978 38.5421 55.6717 38.5421C55.3653 38.5421 55.0733 38.4231 54.8586 38.2078L52.5683 35.9409C52.1188 35.4961 52.1188 34.7763 52.5683 34.3315C53.0177 33.8866 53.7449 33.8866 54.1944 34.3315L55.6717 35.8049L61.7296 29.7978C61.9443 29.5824 62.2363 29.4634 62.5427 29.4634C62.849 29.4634 63.141 29.5824 63.3557 29.7978ZM56.8168 43.0702C54.3948 43.0674 52.1045 41.9793 50.5872 40.1148C49.067 38.2504 48.4801 35.8022 48.9925 33.4616C49.505 31.1183 51.0567 29.132 53.2181 28.0524C55.3796 26.9728 57.9191 26.919 60.1263 27.9051C60.404 28.0298 60.6216 28.2564 60.7304 28.5398C60.8363 28.8232 60.8278 29.1377 60.6989 29.4125C60.573 29.6874 60.3411 29.8999 60.0548 30.0047C59.7685 30.1067 59.4536 30.0954 59.1759 29.9679C56.8627 28.9336 54.1371 29.5287 52.4795 31.4328C50.8219 33.3341 50.6301 36.0912 52.0043 38.2021C53.3814 40.3132 55.9952 41.2765 58.4315 40.5681C60.8678 39.8597 62.5398 37.6496 62.5427 35.1362C62.5598 34.8897 62.5598 34.646 62.5427 34.3995C62.4596 33.7733 62.9062 33.2009 63.539 33.1188C64.1717 33.0366 64.7499 33.4786 64.833 34.1049C64.8559 34.4477 64.8559 34.7934 64.833 35.1363C64.833 37.2416 63.9885 39.2591 62.4854 40.7467C60.9824 42.2343 58.944 43.0702 56.8168 43.0702ZM64.1115 47.6039C66.2215 45.6657 68.0108 43.4131 69.4136 40.9281V46.4705C69.4136 46.7708 69.2934 47.0598 69.0787 47.2724C68.8639 47.4849 68.5719 47.6039 68.2684 47.6039L64.1115 47.6039ZM40.7846 27.8712V26.069C40.7846 24.8165 41.8095 23.8022 43.075 23.8022C46.5705 23.7965 49.9717 22.6659 52.7632 20.5833L55.4314 18.5884C55.8322 18.2909 56.3189 18.1322 56.8171 18.1351C57.3181 18.1351 57.8048 18.2994 58.2027 18.5998L60.8709 20.5833C63.1068 22.2664 65.755 23.3318 68.5437 23.6662C68.83 23.6662 69.1162 23.7342 69.414 23.7568V1.13344C69.414 0.833086 69.2938 0.544063 69.079 0.331524C68.8643 0.118986 68.5723 0 68.2688 0H1.84938C1.21668 0 0.704217 0.507206 0.704217 1.13342V46.4702C0.704217 46.7705 0.824457 47.0595 1.03918 47.2721C1.25389 47.4846 1.54591 47.6036 1.8494 47.6036H49.5226C43.9571 42.5202 40.7876 35.3659 40.7846 27.8712ZM60.8823 6.67604C60.367 6.37002 60.1809 5.72397 60.45 5.19408C60.722 4.6642 61.3605 4.42901 61.913 4.65854C63.8627 5.81749 64.9906 7.9568 64.8332 10.2009C64.9906 12.4451 63.8627 14.5845 61.913 15.7433C61.7555 15.8283 61.578 15.8708 61.3977 15.868C60.9654 15.868 60.5732 15.6272 60.3785 15.2446C60.0951 14.6864 60.3212 14.0092 60.8824 13.7258C62.039 12.9324 62.6717 11.5865 62.5428 10.2009C62.6717 8.81523 62.0389 7.46947 60.8823 6.67604ZM56.3017 7.80946C55.7864 7.50343 55.6003 6.85739 55.8694 6.32749C56.1414 5.79762 56.7798 5.56243 57.3323 5.79195C58.8669 6.72422 59.7515 8.42431 59.6227 10.2009C59.7515 11.9776 58.8669 13.6777 57.3323 14.6099C57.1749 14.6949 56.9974 14.7374 56.817 14.7346C56.3847 14.7346 55.9925 14.4937 55.7978 14.1112C55.5144 13.553 55.7406 12.8758 56.3017 12.5924C57.0861 12.054 57.5242 11.1444 57.4469 10.2009C57.5242 9.25728 57.0861 8.34784 56.3017 7.80946ZM51.721 8.94288C51.4262 8.82104 51.1971 8.58585 51.0883 8.28833C50.9767 7.99365 50.9967 7.66495 51.1399 7.38443C51.283 7.10391 51.5378 6.89422 51.8441 6.80638C52.1505 6.72137 52.4797 6.76388 52.7517 6.92539C53.9255 7.59411 54.6126 8.86355 54.5267 10.2009C54.6126 11.5384 53.9255 12.8078 52.7517 13.4765C52.5942 13.5615 52.4167 13.604 52.2364 13.6012C51.8041 13.6012 51.4119 13.3603 51.2172 12.9778C50.9338 12.4196 51.1599 11.7424 51.7211 11.459C52.0904 11.1501 52.2851 10.6798 52.2364 10.2009C52.2851 9.722 52.0903 9.25175 51.721 8.94288ZM5.28496 5.66732C5.28496 5.0411 5.79742 4.5339 6.43013 4.5339H25.8975C26.5302 4.5339 27.0427 5.0411 27.0427 5.66732C27.0427 6.29353 26.5302 6.80074 25.8975 6.80074H7.57492V13.6012H28.1878V5.66696C28.1878 5.04074 28.7003 4.53354 29.333 4.53354C29.9657 4.53354 30.4782 5.04074 30.4782 5.66696V14.7343C30.4782 15.0347 30.3579 15.3237 30.1432 15.5362C29.9285 15.7488 29.6365 15.8677 29.333 15.8677H6.42974C5.79704 15.8677 5.28457 15.3605 5.28457 14.7343L5.28496 5.66732ZM8.70422 33C8.70422 32.3738 5.79742 34.0028 6.43013 34.0028C7.06283 34.0028 5.70422 34.5104 5.70422 35.1366L2.70422 36.5C2.70422 37.1262 7.06283 38.5365 6.43013 38.5365C8.7041 37.5 8.44255 35.7628 8.44255 35.1366L8.70422 33ZM17.8821 43.0705H6.43049C5.79779 43.0705 5.28533 42.5633 5.28533 41.9371C5.28533 41.3109 5.79779 40.8037 6.43049 40.8037H17.8821C18.5148 40.8037 19.0273 41.3109 19.0273 41.9371C19.0273 42.5633 18.5148 43.0705 17.8821 43.0705ZM11.0111 37.4034V35.1366C11.0111 34.5104 10.3784 33.7427 11.0111 33.7427C11.6438 33.7427 11.7042 34.3738 11.7042 35V36C11.7042 36.6262 13.3924 32.1852 11.0111 32.1852C10.3784 32.1852 11.0111 38.0296 11.0111 37.4034ZM19.0276 37.4034C19.0276 38.0296 19.6603 35 19.0276 35C18.3949 35 15.7042 36.5 16.7373 37.4034L17.8821 36.5C17.8821 35.8738 17.2498 34.0031 17.8825 34.0031C14.7042 32 17.8821 35.8738 17.8821 36.5L19.0276 37.4034ZM36.2055 43.0705H24.7538C24.1211 43.0705 23.6087 42.5633 23.6087 41.9371C23.6087 41.3109 24.1211 40.8037 24.7538 40.8037H36.2055C36.8382 40.8037 37.3506 41.3109 37.3506 41.9371C37.3506 42.5633 36.8382 43.0705 36.2055 43.0705ZM24.7042 37.5H25.2042C24.5715 37.5 25.2042 36.8738 25.2042 37.5C25.8369 37.5 24.7042 37.3738 24.7042 38L25.8986 37.4034C24.7042 37.5 25.8369 36 25.2042 36C24.5715 36 24.7042 38.1262 24.7042 37.5ZM30.2042 36.5C30.2042 35.8738 29.5715 36 30.2042 36C30.8369 36 30.2042 35.8738 30.2042 36.5C30.2042 37.1262 30.843 36.5039 30.2103 36.5039C29.5776 36.5039 30.2042 37.1262 30.2042 36.5ZM36.7042 37.5C36.7042 36 36.8369 37 36.2042 37C35.5715 37 37.7042 36 36.2042 37H37.2042C37.2042 36.3738 35.5715 37 36.2042 37C36.2042 36.5 36.8369 37 36.2042 37L36.7042 37.5ZM36.2055 27.203H6.43122C5.79852 27.203 5.28606 26.6958 5.28606 26.0696C5.28606 25.4434 5.79852 24.9362 6.43122 24.9362H36.2055C36.8382 24.9362 37.3506 25.4434 37.3506 26.0696C37.3506 26.6958 36.8382 27.203 36.2055 27.203Z" fill="#6286ED"/>
</svg>
