<svg width="162" height="213" viewBox="0 0 162 213" fill="none" xmlns="http://www.w3.org/2000/svg">
<path d="M23.775 34.0203C24.0885 26.6083 22.2873 19.6653 21.2694 12.3569C20.6951 8.36379 19.7817 4.10884 23.2006 1.21261C24.5319 0.0902631 26.8811 0.690955 27.1673 2.54395C29.2557 16.2201 33.7704 27.7565 32.779 41.8245C31.5259 59.4683 24.8181 76.1459 19.5727 92.876C13.8311 111.172 8.79357 129.938 8.61109 149.252C8.42843 169.114 12.8132 188.689 19.808 207.194C22.0789 212.858 12.7349 215.52 10.5949 209.752C-3.34206 171.986 -2.82049 134.663 8.14129 96.2695C13.9875 75.833 22.8617 55.5013 23.775 34.021L23.775 34.0203ZM138.798 1.21261C137.466 0.0902631 135.117 0.690955 134.831 2.54395C132.743 16.2201 128.228 27.7565 129.219 41.8245C130.472 59.4683 137.18 76.1459 142.426 92.876C148.167 111.172 153.205 129.938 153.387 149.252C153.57 169.114 149.185 188.689 142.19 207.194C139.919 212.858 149.263 215.52 151.403 209.752C165.34 171.986 164.819 134.663 153.857 96.2695C148.036 75.833 139.137 55.5013 138.223 34.021C137.91 26.609 139.711 19.666 140.729 12.3575C141.303 8.36446 142.217 4.10951 138.798 1.21328V1.21261ZM55.878 146.198C56.5042 153.715 64.2561 158.335 71.9815 160.605C71.5898 168.853 73.052 177.1 72.2423 185.452C71.5635 192.551 68.9017 199.494 68.5618 206.541C68.2746 207.194 68.1964 207.977 68.3009 208.968C68.4054 209.752 69.3451 210.508 69.9449 210.874C75.8437 214.371 76.8353 204.714 77.2788 202.365C79.5754 190.046 81.2982 174.517 77.7223 161.91C79.1055 162.119 80.4367 162.276 81.6373 162.328H81.8463C79.2363 171.385 79.4454 181.224 80.9593 190.438C81.9772 196.598 82.8123 208.864 90.9559 209.151C92.9397 209.23 94.0874 207.063 94.0874 205.393C94.1137 202.939 92.5998 201.191 91.6338 199.024C89.9898 195.24 89.3109 191.09 88.6321 187.045C87.3271 178.98 89.9108 169.949 87.6143 162.198C96.5929 161.389 105.127 157.682 110.53 150.113C112.305 147.634 108.807 145.181 106.641 146.851C99.2548 152.567 89.7544 155.699 80.3848 154.968C70.5973 154.211 66.8387 148.861 59.3738 143.927C57.6262 142.806 55.695 144.294 55.8777 146.198L55.878 146.198ZM74.5134 85.881C74.3044 85.9592 74.0954 86.0118 73.8872 86.09C71.6953 86.7689 70.573 88.5436 70.5467 90.3441C70.025 101.88 68.2237 114.904 70.6512 126.232C71.2255 128.893 74.6179 128.424 75.1142 125.997C76.4456 119.446 77.2026 112.608 77.6979 105.77C79.1593 107.753 80.7777 109.58 82.6308 111.25C85.0844 113.417 89.5476 113.025 90.4091 109.345C92.2621 101.515 93.906 93.3713 97.2995 86.0635C100.431 79.3041 105.599 74.5012 104.686 66.9583C104.477 65.288 102.18 64.4793 100.954 65.627C91.9496 74.2139 88.3735 86.925 84.4585 98.6957C82.6318 95.7466 81.2223 92.5361 80.1518 89.2216C79.4202 86.9513 77.0456 85.0984 74.5137 85.881L74.5134 85.881ZM87.459 56.5446C89.2601 55.2659 89.3902 52.1598 87.9288 50.5677C86.363 48.8974 83.7531 48.5584 81.9519 50.0979C81.1949 50.7504 80.5688 51.5074 80.2553 52.4471C79.5764 54.5354 80.6206 57.1455 82.8135 57.798C84.4057 58.2942 85.9196 57.8762 86.9893 56.8847C87.1456 56.7793 87.2764 56.6494 87.4591 56.5448L87.459 56.5446ZM114.916 82.5663C111.549 84.9418 107.739 86.5857 104.503 89.1957C101.971 91.205 105.311 94.8855 107.817 92.928C111.079 90.3961 114.943 88.8821 118.1 86.2466C120.554 84.1838 117.396 80.8176 114.916 82.5661L114.916 82.5663ZM124.626 101.489C119.457 101.202 114.317 101.854 109.122 101.593C106.329 101.462 105.39 105.404 107.686 106.762C113.115 109.946 119.64 108.485 125.382 107.153C128.723 106.369 127.757 101.672 124.626 101.489ZM113.533 119.55C112.515 116.966 108.026 118.506 108.914 121.168C110.35 125.422 113.977 128.502 118.623 128.372C121.859 128.268 122.095 123.544 118.832 123.308C116.326 123.126 114.446 121.873 113.533 119.55ZM55.6694 92.6929C56.5046 93.2936 57.3134 94.0497 58.2276 94.5195C59.2718 95.0939 60.5242 95.0412 61.3338 94.1015C62.0908 93.2145 62.1689 91.8569 61.3601 90.97C59.8206 89.2996 57.6278 88.0209 55.7221 86.7679C53.0603 85.0449 50.3711 89.1689 53.034 90.8919C53.921 91.4662 54.8079 92.0667 55.6694 92.6929ZM43.4809 104.124C41.1054 104.568 40.74 108.536 43.2719 109.005C48.4656 110.023 54.2335 109.867 59.428 109.188C62.6905 108.745 61.5945 104.307 58.8537 103.916C53.9465 103.237 48.3875 103.211 43.4809 104.124ZM60.0279 118.271C57.3916 119.002 55.2514 120.699 52.9813 122.16C50.9193 123.491 49.04 124.926 47.4222 126.832C45.9609 128.555 47.0306 132.339 49.8232 131.321C54.7561 129.546 60.9675 127.328 63.9692 122.839C65.6395 120.333 62.4552 117.592 60.0279 118.271Z" fill="black"/>
</svg>
