<svg width="23" height="23" viewBox="0 0 23 23" fill="none" xmlns="http://www.w3.org/2000/svg">
<path d="M19.3764 1.0252C19.5015 0.899839 19.6713 0.829415 19.8485 0.829415C20.0256 0.829415 20.1954 0.899839 20.3206 1.0252L21.9667 2.67127C22.092 2.79644 22.1624 2.96627 22.1624 3.14336C22.1624 3.32055 22.092 3.49037 21.9667 3.61546L21.3599 4.22105L18.7707 1.63087L19.3764 1.0252ZM3.62359 21.9586C3.49851 22.084 3.32869 22.1544 3.1515 22.1544C2.9744 22.1544 2.80459 22.084 2.6794 21.9586L1.03334 20.316C0.907785 20.1912 0.837173 20.0215 0.837173 19.8445C0.837173 19.6674 0.907785 19.4976 1.03334 19.3729L1.64004 18.7627L4.23023 21.3529L3.62359 21.9586ZM6.9482 22.1141L6.9483 22.114C6.77564 22.2865 6.54152 22.3832 6.29749 22.3832C6.05345 22.3832 5.81945 22.2865 5.64678 22.114L4.88806 21.353L1.64006 18.112L0.879104 17.3511C0.706728 17.1783 0.609863 16.9443 0.609863 16.7003C0.609863 16.4562 0.706719 16.2222 0.879104 16.0496L1.90459 15.0241L7.97381 21.0943L6.9482 22.1141ZM11.7482 19.5249L11.7483 19.5248C11.7496 19.7517 11.6602 19.9697 11.5 20.1304L10.1823 21.4492C10.0243 21.6063 9.81052 21.6945 9.58773 21.6945C9.36494 21.6945 9.15123 21.6063 8.99328 21.4492L1.54366 13.9996V13.9997C1.38667 13.8417 1.29849 13.628 1.29849 13.4052C1.29849 13.1824 1.38666 12.9687 1.54366 12.8106L2.8614 11.4999C3.02216 11.3382 3.2407 11.2472 3.46868 11.2472C3.69667 11.2472 3.91521 11.3382 4.07597 11.4999L11.5 18.9239C11.6589 19.0835 11.7482 19.2995 11.7482 19.5247L11.7482 19.5249ZM8.79381 15.5598L7.43311 14.198L14.2063 7.42482L15.567 8.78439L8.79381 15.5598ZM21.4576 8.98265C21.6147 9.14068 21.7029 9.35441 21.7029 9.5772C21.7029 9.79999 21.6147 10.0136 21.4576 10.1717L20.1388 11.4882C19.9781 11.6493 19.76 11.7397 19.5326 11.7397C19.3052 11.7397 19.0871 11.6493 18.9266 11.4882L11.5026 4.06425C11.3415 3.90367 11.251 3.68561 11.251 3.4581C11.251 3.23069 11.3415 3.01261 11.5026 2.85205L12.8203 1.53318C12.9779 1.37553 13.1919 1.28697 13.4147 1.28697C13.6377 1.28697 13.8515 1.37552 14.0093 1.53318L21.0981 8.62199L21.4576 8.98265ZM22.1223 6.93991L21.0968 7.9654L15.0278 1.89498L16.0521 0.869488V0.869582C16.2248 0.697112 16.4589 0.600342 16.7029 0.600342C16.9469 0.600342 17.181 0.697103 17.3536 0.869582L18.1123 1.63054L22.1213 5.63955C22.2937 5.81202 22.3905 6.04584 22.3905 6.28968C22.3905 6.53352 22.2937 6.76746 22.1213 6.93991L22.1223 6.93991Z" fill="black"/>
</svg>
