<svg width="32" height="32" viewBox="0 0 32 32" fill="none" xmlns="http://www.w3.org/2000/svg">
<path d="M29.0849 16.2317C28.6355 16.2317 28.2707 16.5965 28.2707 17.046C28.2707 24.3926 22.2948 30.3697 14.9495 30.3697C7.60417 30.3697 1.62821 24.3926 1.62821 17.046C1.62821 9.69937 7.60417 3.72234 14.9495 3.72234C15.3989 3.72234 15.7636 3.35753 15.7636 2.90805C15.7636 2.45856 15.3989 2.09375 14.9495 2.09375C6.70711 2.09375 0 8.8004 0 17.0459C0 25.2898 6.70544 31.9981 14.9495 31.9981C23.1918 31.9981 29.899 25.2914 29.899 17.0459C29.899 16.5964 29.5343 16.2317 29.0849 16.2317Z" fill="black" fill-opacity="0.7"/>
<path d="M14.9484 9.87859C15.3978 9.87859 15.7626 9.51378 15.7626 9.0643C15.7626 8.61481 15.3978 8.25 14.9484 8.25C10.0959 8.25 6.14746 12.1978 6.14746 17.0525C6.14746 21.9059 10.0945 25.8551 14.9484 25.8551C19.801 25.8551 23.7494 21.9073 23.7494 17.0525C23.7494 16.603 23.3846 16.2382 22.9352 16.2382C22.4858 16.2382 22.1211 16.603 22.1211 17.0525C22.1211 21.0084 18.9035 24.2265 14.9483 24.2265C10.9932 24.2265 7.77559 21.0084 7.77559 17.0525C7.77559 13.0967 10.9933 9.87859 14.9484 9.87859Z" fill="black" fill-opacity="0.7"/>
<path d="M31.9883 7.60824C31.9509 7.35418 31.7946 7.13107 31.5666 7.00891L27.281 4.71746L24.9899 0.431054C24.8694 0.203046 24.6463 0.0466994 24.3907 0.00925128C24.135 -0.0298354 23.8778 0.0564806 23.6954 0.238885L17.521 6.41437C17.3647 6.57072 17.2784 6.78407 17.2833 7.00394L17.3989 13.45L14.3751 16.4743C14.056 16.7936 14.056 17.3082 14.3751 17.6258C14.5347 17.7854 14.7431 17.8635 14.9515 17.8635C15.1599 17.8635 15.3684 17.7837 15.5279 17.6258L18.5517 14.6014L24.9966 14.7171H25.0113C25.2262 14.7171 25.4346 14.6324 25.5877 14.4793L31.7621 8.3038C31.9445 8.1214 32.0291 7.86407 31.9917 7.60837L31.9883 7.60824ZM24.0698 2.16529L25.6754 5.17007L18.9962 11.8505L18.9148 7.3214L24.0698 2.16529ZM24.6772 13.082L20.149 13.0006L26.8281 6.32023L29.8324 7.92606L24.6772 13.082Z" fill="black" fill-opacity="0.7"/>
</svg>
