<svg width="30" height="35" viewBox="0 0 30 35" fill="none" xmlns="http://www.w3.org/2000/svg">
<path d="M9.27519 14.0221C7.8212 14.1084 6.65918 15.3284 6.65918 16.8235V22.5988C6.65918 24.0967 7.19538 25.5464 8.16519 26.6799L9.27086 27.9716V29.1243H8.71586C8.40946 29.1243 8.16086 29.3759 8.16086 29.686V34.2543C8.16086 34.5644 8.40946 34.816 8.71586 34.816H20.3564C20.6628 34.816 20.9114 34.5644 20.9114 34.2543V29.686C20.9114 29.3759 20.6628 29.1243 20.3564 29.1243H19.7566V27.9745L20.8738 26.693C21.8697 25.5549 22.4174 24.0907 22.4174 22.5737V19.1478C22.4174 19.0995 22.4102 19.0498 22.3958 19.0059C22.4073 18.9166 22.4174 18.823 22.4174 18.7294V13.8686C22.4174 12.7188 21.4924 11.7826 20.3564 11.7826C20.0081 11.7826 19.6829 11.8689 19.3982 12.0225C19.3014 10.9634 18.4183 10.1311 17.3487 10.1311C16.8747 10.1311 16.4382 10.2964 16.0913 10.5699C15.7286 9.97455 15.081 9.57812 14.341 9.57812C13.2166 9.57812 12.3017 10.4953 12.2844 11.6261C11.9996 11.4769 11.6773 11.3906 11.3334 11.3906C10.1973 11.3906 9.27234 12.3268 9.27234 13.4766V14.0266L9.27519 14.0221ZM19.8058 30.2448V33.6898H9.27519V30.2448H19.8058ZM19.4098 18.3066V13.8656C19.4098 13.3331 19.8347 12.903 20.3608 12.903C20.8869 12.903 21.3118 13.3331 21.3118 13.8656V18.7264C21.3118 19.2589 20.8869 19.6889 20.3608 19.6889C19.8347 19.6889 19.4098 19.2589 19.4098 18.7264V18.3066ZM16.4021 12.2137C16.4021 11.6813 16.827 11.2512 17.3531 11.2512C17.8792 11.2512 18.3041 11.6813 18.3041 12.2137V18.3066C18.3041 18.8391 17.8792 19.2691 17.3531 19.2691C16.827 19.2691 16.4021 18.8391 16.4021 18.3066V17.4596C16.72 17.2387 16.9787 16.9871 17.1681 16.6916C17.8792 15.5755 17.3646 14.3965 17.3415 14.3438C17.2533 14.1419 17.0524 14.0147 16.8342 14.0147H16.4006V12.2168L16.4021 12.2137ZM13.3944 13.4689V11.6564C13.3944 11.1239 13.8193 10.6939 14.3454 10.6939C14.8715 10.6939 15.2964 11.1239 15.2964 11.6564V14.0086H13.3987V13.4659L13.3944 13.4689ZM10.3867 13.4689C10.3867 12.9364 10.8116 12.5063 11.3377 12.5063C11.8638 12.5063 12.2887 12.9364 12.2887 13.4689V14.0116H10.391V13.4689H10.3867ZM16.418 15.135C16.4556 15.3895 16.4513 15.7494 16.2287 16.0903C15.733 16.8539 14.2934 17.2781 12.1805 17.2781H10.9852C10.8783 17.2737 10.8118 17.2781 10.8003 17.2781C10.5011 17.2971 10.2713 17.5546 10.2828 17.8588C10.2944 18.1616 10.5387 18.4015 10.8378 18.4015H10.978C11.2555 18.4132 12.0331 18.5142 12.6878 19.1724C13.5391 20.0341 13.9192 21.592 13.7863 23.6737C13.7675 23.9839 13.9973 24.2501 14.3037 24.2691C14.6072 24.291 14.8732 24.0555 14.8919 23.7454C14.9989 22.1012 14.811 20.7539 14.3485 19.7006C14.7965 19.7006 15.207 19.5514 15.5438 19.3042C15.895 19.9479 16.5728 20.3867 17.349 20.3867C17.849 20.3867 18.3072 20.2038 18.6656 19.9039C19.04 20.4466 19.6571 20.8021 20.3566 20.8021C20.7006 20.8021 21.0229 20.7158 21.3077 20.5666V22.5662C21.3077 23.8096 20.8596 25.0121 20.0459 25.9439L18.7885 27.3863C18.7003 27.4872 18.6483 27.6218 18.6483 27.7564V29.1197H10.3825V27.7564C10.3825 27.6218 10.3348 27.4901 10.2452 27.3892L9.0022 25.9395C8.20729 25.0106 7.76648 23.8243 7.76648 22.5955V16.8202C7.76648 15.8913 8.51369 15.135 9.43148 15.135H16.418ZM15.204 18.0226C15.0522 18.3518 14.727 18.58 14.3455 18.58C14.094 18.58 13.8685 18.479 13.698 18.3181C14.2602 18.2538 14.7632 18.1572 15.2069 18.0226L15.204 18.0226Z" fill="black" fill-opacity="0.7"/>
<path d="M19.2717 3.46327C19.2168 3.28773 19.0752 3.14876 18.8974 3.0961L16.4375 2.37638L15.0023 0.230395C14.7956 -0.0767984 14.2883 -0.0767984 14.0845 0.230395L12.6493 2.37638L10.1894 3.0961C10.0116 3.14876 9.87144 3.28334 9.81508 3.46327C9.76016 3.63881 9.7934 3.83337 9.90325 3.97965L11.4757 6.02467L11.3905 8.61681C11.3832 8.80406 11.4685 8.9796 11.6203 9.0893C11.7677 9.19755 11.9643 9.22827 12.1348 9.16391L14.5441 8.28327L16.9535 9.16391C17.017 9.18585 17.0792 9.19755 17.1428 9.19755C17.257 9.19755 17.3726 9.15952 17.468 9.0893C17.6154 8.98105 17.7007 8.80113 17.6978 8.61682L17.6125 6.02467L19.185 3.97965C19.2992 3.83337 19.3324 3.63881 19.2732 3.46327L19.2717 3.46327ZM16.608 5.49661C16.5271 5.60193 16.4866 5.7292 16.4895 5.85939L16.5531 7.82544L14.7248 7.15545C14.6655 7.1335 14.599 7.1218 14.5355 7.1218C14.4719 7.1218 14.4054 7.1335 14.3461 7.15545L12.5178 7.82544L12.5814 5.85939C12.5857 5.72774 12.5438 5.60047 12.4629 5.49661L11.2719 3.94602L13.1364 3.39893C13.2621 3.3609 13.3691 3.28337 13.4428 3.17366L14.534 1.54405L15.6252 3.17366C15.6989 3.28191 15.8059 3.3609 15.9316 3.39893L17.7961 3.94602L16.6051 5.49661H16.608Z" fill="black" fill-opacity="0.7"/>
<path d="M8.48256 4.29325C8.35248 4.15866 8.16748 4.10161 7.98683 4.13233L5.46765 4.59314L3.2361 3.31607C3.07712 3.22245 2.88056 3.21806 2.71433 3.30144C2.54812 3.38336 2.43683 3.54427 2.41081 3.72858L2.06683 6.29732L0.179237 8.04979C0.0419339 8.17706 -0.020215 8.35991 0.00579965 8.54422C0.0318151 8.72708 0.145996 8.88945 0.312204 8.96698L2.62038 10.0948L3.68268 12.4544C3.76073 12.6226 3.91249 12.7425 4.09316 12.7762C4.12207 12.7806 4.15676 12.7835 4.18566 12.7835C4.33742 12.7835 4.48195 12.7191 4.58456 12.6109L6.35653 10.7385L8.90172 10.4459C9.08238 10.424 9.2457 10.3142 9.33099 10.1504C9.41627 9.98511 9.41627 9.78763 9.33099 9.62231L8.11695 7.33736L8.62714 4.7979C8.66472 4.61505 8.60835 4.42781 8.47972 4.29175L8.48256 4.29325ZM6.03708 9.64425C5.907 9.65888 5.78848 9.71886 5.70032 9.81248L4.35763 11.2314L3.55114 9.44095C3.49621 9.321 3.40371 9.22446 3.28809 9.16741L1.5378 8.31313L2.97011 6.98341C3.06695 6.89418 3.1291 6.77423 3.14355 6.64696L3.4066 4.69994L5.09761 5.66978C5.2089 5.73415 5.34187 5.75609 5.47194 5.73415L7.38554 5.3816L6.99674 7.3096C6.97073 7.43686 6.98952 7.57145 7.05167 7.68846L7.97234 9.419L6.04138 9.63988L6.03708 9.64425Z" fill="black" fill-opacity="0.7"/>
<path d="M29.0738 8.55146C29.0999 8.36861 29.0363 8.18137 28.9004 8.05703L27.0128 6.30455L26.6688 3.73582C26.6428 3.55296 26.5315 3.39059 26.3653 3.30868C26.1991 3.22676 26.0069 3.22968 25.8435 3.32331L23.612 4.60037L21.0928 4.13957C20.9121 4.10592 20.7271 4.1659 20.5971 4.30048C20.467 4.43506 20.4121 4.62231 20.4497 4.80664L20.9599 7.34609L19.7458 9.63105C19.6576 9.79635 19.6576 9.9909 19.7458 10.1591C19.834 10.3274 19.9944 10.4356 20.1751 10.4546L22.7203 10.7472L24.4922 12.6196C24.5992 12.7323 24.7437 12.7922 24.8911 12.7922C24.9201 12.7922 24.9547 12.7922 24.9836 12.7849C25.1643 12.7557 25.3204 12.6357 25.3941 12.4631L26.4564 10.1035L28.7646 8.97571C28.9308 8.89379 29.0464 8.73581 29.071 8.55296L29.0738 8.55146ZM25.7959 9.17756C25.6773 9.23315 25.5849 9.33116 25.5328 9.45111L24.7263 11.2416L23.3836 9.82264C23.2955 9.72902 23.1726 9.66904 23.0469 9.65441L21.1159 9.43353L22.0366 7.703C22.1002 7.58743 22.1175 7.45139 22.0915 7.32413L21.7027 5.39613L23.6163 5.74868C23.7464 5.77062 23.875 5.74868 23.9906 5.68431L25.6817 4.71447L25.9447 6.66149C25.9635 6.79314 26.0228 6.9131 26.1181 6.99794L27.5505 8.32766L25.8002 9.18194L25.7959 9.17756Z" fill="black" fill-opacity="0.7"/>
</svg>
