<svg width="23" height="32" viewBox="0 0 23 32" fill="none" xmlns="http://www.w3.org/2000/svg">
<path fill-rule="evenodd" clip-rule="evenodd" d="M2.29965 23.4551C2.19779 23.6636 1.98624 23.8085 1.74334 23.8085C1.40251 23.8085 1.12435 23.5266 1.12435 23.1812V22.4845C1.12435 22.4845 1.12435 22.4825 1.12631 22.4825C0.924552 22.3575 0.756096 22.1927 0.611167 22.0062C0.22137 21.508 0 20.843 0 20.1344C0 19.4278 0.221345 18.7629 0.611167 18.2647C0.848182 17.959 1.15569 17.7069 1.51418 17.5561C1.12438 16.5378 0.912839 15.4402 0.912839 14.2969C0.912839 10.593 3.13607 7.36749 6.41123 5.70437C6.3936 5.52574 6.38381 5.34312 6.38381 5.15854C6.38381 2.3122 8.66581 0 11.4745 0C14.2854 0 16.5652 2.3124 16.5652 5.15854C16.5652 5.34313 16.5554 5.52575 16.5378 5.70437C19.8149 7.36769 22.0382 10.5931 22.0382 14.2969C22.0382 15.4342 21.8267 16.5259 21.4427 17.5402C21.8188 17.687 22.142 17.9471 22.3888 18.2647C22.7767 18.7629 23 19.4278 23 20.1344C23 20.843 22.7767 21.5079 22.3888 22.0062C22.238 22.1987 22.0617 22.3714 21.86 22.5083V22.5163V23.213C21.86 23.5584 21.5838 23.8402 21.2429 23.8402C20.9687 23.8402 20.7356 23.6576 20.6553 23.4075C20.2381 28.2149 16.2911 32 11.4742 32C6.67521 32 2.73641 28.2405 2.29965 23.4551ZM19.4036 22.5639V17.1569C19.4036 16.3729 19.2939 15.6127 19.0921 14.8942C17.6348 15.1899 16.0893 15.1423 14.5674 14.6917C11.968 13.9196 9.93873 12.1213 8.78515 9.8605L8.73226 9.74935C7.7764 11.6846 6.18585 13.2904 4.1448 14.2233L4.07232 14.2531L4.06645 14.255C3.7315 15.1562 3.54539 16.1347 3.54539 17.1569V22.5639C3.54539 27.0597 7.10453 30.694 11.4743 30.694C15.8443 30.694 19.4036 27.0597 19.4036 22.5639ZM8.70065 25.1582C8.67127 24.9796 8.80446 24.8823 8.91416 24.8823H14.1247C14.2422 24.8823 14.3519 25.0193 14.3363 25.186C14.1717 26.6092 12.9632 27.6036 11.4941 27.6036C10.0543 27.6036 8.87495 26.5377 8.70065 25.1582ZM10.2324 23.5445C10.0914 23.2944 10.1776 22.9768 10.4244 22.8339C10.7633 22.6354 11.1276 22.5163 11.5096 22.5124C11.8935 22.5084 12.2617 22.6235 12.6065 22.8438C12.8455 22.9987 12.9179 23.3202 12.7671 23.5644C12.6143 23.8085 12.297 23.8819 12.0561 23.7271C11.8602 23.6021 11.6839 23.5544 11.5174 23.5564C11.3489 23.5584 11.157 23.61 10.9356 23.739C10.6888 23.8819 10.3734 23.7946 10.2324 23.5445ZM20.8 21.5536H20.8215C21.0096 21.5278 21.2054 21.4186 21.3778 21.1983C21.5737 20.9463 21.7128 20.5711 21.7128 20.1344C21.7128 19.6977 21.5737 19.3245 21.3778 19.0725C21.229 18.882 21.0585 18.7728 20.892 18.7311C20.8627 18.7867 20.8313 18.8423 20.8 18.8959L20.8 21.5536ZM2.1972 21.5536V18.9812C2.15215 18.9018 2.10709 18.8224 2.06204 18.743C1.91122 18.7907 1.75843 18.8979 1.62131 19.0725C1.42544 19.3246 1.28636 19.6978 1.28636 20.1344C1.28636 20.571 1.42543 20.9463 1.62131 21.1983C1.79173 21.4167 1.98957 21.5278 2.17762 21.5536L2.1972 21.5536ZM6.02662 20.4044H6.03054C6.02858 20.4044 6.02858 20.4044 6.02858 20.4024C5.77981 20.3687 5.58785 20.1503 5.58785 19.8883C5.58785 19.6462 5.75238 19.4417 5.97373 19.3822C6.15394 18.8443 6.65931 18.4552 7.25283 18.4552C7.99718 18.4552 8.60243 19.0666 8.60243 19.8228C8.60243 20.0312 8.55738 20.2277 8.47511 20.4044H6.73768C6.71222 20.4084 6.68675 20.4103 6.66129 20.4103H6.10303C6.07756 20.4103 6.05208 20.4084 6.02662 20.4044ZM16.2948 20.4044H14.5593C14.4771 20.2277 14.4301 20.0312 14.4301 19.8228C14.4301 19.0666 15.0353 18.4552 15.7816 18.4552C16.3751 18.4552 16.8785 18.8443 17.0607 19.3822C17.2821 19.4417 17.4446 19.6462 17.4446 19.8883C17.4446 20.1483 17.2566 20.3647 17.0078 20.3945C17.0078 20.3984 17.0059 20.4004 17.0039 20.4044H17.0078C16.9824 20.4084 16.9569 20.4103 16.9295 20.4103H16.3732C16.3477 20.4103 16.3203 20.4084 16.2948 20.4044ZM5.58785 17.2385C5.58785 16.9507 5.81899 16.7165 6.10299 16.7165H7.7856C8.06963 16.7165 8.30074 16.9507 8.30074 17.2385C8.30074 17.5263 8.0696 17.7605 7.7856 17.7605H6.10299C5.81896 17.7605 5.58785 17.5263 5.58785 17.2385ZM14.7333 17.2385C14.7333 16.9507 14.9644 16.7165 15.2484 16.7165H16.9291C17.2131 16.7165 17.4442 16.9507 17.4442 17.2385C17.4442 17.5263 17.2131 17.7605 16.9291 17.7605H15.2484C14.9644 17.7605 14.7333 17.5263 14.7333 17.2385Z" fill="black" fill-opacity="0.7"/>
</svg>
