<svg width="317" height="215" viewBox="0 0 317 215" fill="none" xmlns="http://www.w3.org/2000/svg">
<g clip-path="url(#clip0_1200_4122)">
<mask id="path-1-inside-1_1200_4122" fill="white">
<path d="M0 0H317V215H0V0Z"/>
</mask>
<path d="M0 215V27.5" stroke="black" stroke-opacity="0.1" stroke-width="0.5"/>
<path d="M70.7959 215L70.7959 27" stroke="black" stroke-opacity="0.2" stroke-dasharray="3 3"/>
<path d="M141.796 215L141.796 27" stroke="black" stroke-opacity="0.2" stroke-dasharray="3 3"/>
<path d="M212.796 215L212.796 27" stroke="black" stroke-opacity="0.2" stroke-dasharray="3 3"/>
<path d="M283.796 215L283.796 27" stroke="black" stroke-opacity="0.2" stroke-dasharray="3 3"/>
<path d="M-3.2041 68H7.98265C18.6967 68 28.5976 73.7139 33.958 82.9906L58.7857 125.957C65.5116 137.597 77.4338 145.284 90.8121 146.605L96.1176 147.129C104.925 147.999 112.907 152.69 117.953 159.961V159.961C120.484 163.609 123.788 166.653 127.63 168.878L130.421 170.494C137.217 174.428 144.931 176.5 152.784 176.5H155.57C161.344 176.5 167.074 177.5 172.506 179.456L176.561 180.916C184.901 183.918 192.293 189.083 197.979 195.882L212.296 213" stroke="url(#paint0_linear_1200_4122)" stroke-width="4"/>
<circle cx="212.796" cy="213" r="6" fill="#67B582" stroke="white" stroke-width="2"/>
<g filter="url(#filter0_d_1200_4122)">
<path d="M212.796 184C212.796 176.82 218.616 171 225.796 171H303.796C310.976 171 316.796 176.82 316.796 184C316.796 191.18 310.976 197 303.796 197H212.796V184Z" fill="#67B582"/>
</g>
<path d="M232.095 185.424C232.095 186.255 231.801 186.908 231.213 187.384C230.625 187.86 229.865 188.098 228.931 188.098C227.895 188.098 227.037 187.897 226.355 187.496V185.998C227.093 186.549 227.947 186.824 228.917 186.824C229.431 186.824 229.837 186.707 230.135 186.474C230.434 186.231 230.583 185.9 230.583 185.48C230.583 185.228 230.495 184.999 230.317 184.794C230.14 184.579 229.949 184.421 229.743 184.318C229.538 184.206 229.23 184.057 228.819 183.87C228.577 183.758 228.404 183.679 228.301 183.632C228.208 183.585 228.049 183.501 227.825 183.38C227.601 183.259 227.433 183.156 227.321 183.072C227.219 182.988 227.088 182.871 226.929 182.722C226.771 182.573 226.654 182.423 226.579 182.274C226.514 182.125 226.449 181.952 226.383 181.756C226.327 181.551 226.299 181.331 226.299 181.098C226.299 180.295 226.589 179.661 227.167 179.194C227.755 178.727 228.511 178.494 229.435 178.494C230.285 178.494 231.008 178.643 231.605 178.942V180.37C230.98 179.978 230.271 179.782 229.477 179.782C228.964 179.782 228.558 179.899 228.259 180.132C227.97 180.356 227.825 180.655 227.825 181.028C227.825 181.401 227.97 181.7 228.259 181.924C228.549 182.148 228.992 182.391 229.589 182.652C229.981 182.82 230.285 182.965 230.499 183.086C230.723 183.207 230.975 183.38 231.255 183.604C231.545 183.819 231.755 184.08 231.885 184.388C232.025 184.687 232.095 185.032 232.095 185.424ZM238.836 188H237.464V186.782C237.091 187.65 236.353 188.084 235.252 188.084C234.552 188.084 233.997 187.879 233.586 187.468C233.175 187.048 232.97 186.474 232.97 185.746V180.902H234.356V185.41C234.356 185.895 234.473 186.269 234.706 186.53C234.949 186.782 235.28 186.908 235.7 186.908C236.232 186.908 236.657 186.721 236.974 186.348C237.301 185.975 237.464 185.447 237.464 184.766V180.902H238.836V188ZM249.823 188H248.451V183.52C248.451 182.503 248.04 181.994 247.219 181.994C246.808 181.994 246.44 182.176 246.113 182.54C245.796 182.904 245.637 183.441 245.637 184.15V188H244.265V183.52C244.265 182.503 243.85 181.994 243.019 181.994C242.618 181.994 242.254 182.176 241.927 182.54C241.6 182.904 241.437 183.441 241.437 184.15V188H240.065V180.902H241.437V182.036C241.838 181.215 242.506 180.804 243.439 180.804C244.503 180.804 245.184 181.261 245.483 182.176C245.679 181.737 245.964 181.401 246.337 181.168C246.71 180.925 247.13 180.804 247.597 180.804C248.325 180.804 248.876 181.019 249.249 181.448C249.632 181.877 249.823 182.47 249.823 183.226V188ZM260.744 188H259.372V183.52C259.372 182.503 258.961 181.994 258.14 181.994C257.729 181.994 257.361 182.176 257.034 182.54C256.717 182.904 256.558 183.441 256.558 184.15V188H255.186V183.52C255.186 182.503 254.771 181.994 253.94 181.994C253.539 181.994 253.175 182.176 252.848 182.54C252.521 182.904 252.358 183.441 252.358 184.15V188H250.986V180.902H252.358V182.036C252.759 181.215 253.427 180.804 254.36 180.804C255.424 180.804 256.105 181.261 256.404 182.176C256.6 181.737 256.885 181.401 257.258 181.168C257.631 180.925 258.051 180.804 258.518 180.804C259.246 180.804 259.797 181.019 260.17 181.448C260.553 181.877 260.744 182.47 260.744 183.226V188ZM267.199 187.622C266.677 187.921 265.986 188.07 265.127 188.07C264.026 188.07 263.149 187.739 262.495 187.076C261.842 186.413 261.515 185.545 261.515 184.472C261.515 183.333 261.814 182.442 262.411 181.798C263.009 181.145 263.769 180.818 264.693 180.818C265.599 180.818 266.317 181.103 266.849 181.672C267.381 182.232 267.647 183.044 267.647 184.108C267.647 184.397 267.619 184.701 267.563 185.018H262.901C262.995 185.634 263.256 186.105 263.685 186.432C264.115 186.759 264.656 186.922 265.309 186.922C266.065 186.922 266.695 186.745 267.199 186.39V187.622ZM264.721 181.952C264.255 181.952 263.853 182.125 263.517 182.47C263.181 182.806 262.971 183.296 262.887 183.94H266.317V183.688C266.299 183.156 266.154 182.736 265.883 182.428C265.613 182.111 265.225 181.952 264.721 181.952ZM269.935 188H268.563V180.902H269.935V182.148C270.28 181.271 270.901 180.832 271.797 180.832C271.927 180.832 272.072 180.846 272.231 180.874V182.218C272.035 182.134 271.815 182.092 271.573 182.092C271.097 182.092 270.705 182.302 270.397 182.722C270.089 183.142 269.935 183.641 269.935 184.22V188ZM276.766 188H275.38V178.102H276.766V181.98C277.27 181.196 277.984 180.804 278.908 180.804C279.804 180.804 280.537 181.14 281.106 181.812C281.675 182.484 281.96 183.375 281.96 184.486C281.96 185.485 281.689 186.339 281.148 187.048C280.607 187.748 279.865 188.098 278.922 188.098C277.979 188.098 277.261 187.706 276.766 186.922V188ZM276.766 184.402C276.766 185.242 276.953 185.867 277.326 186.278C277.699 186.689 278.157 186.894 278.698 186.894C279.221 186.894 279.659 186.675 280.014 186.236C280.369 185.788 280.546 185.214 280.546 184.514C280.546 183.711 280.369 183.095 280.014 182.666C279.659 182.227 279.207 182.008 278.656 182.008C278.171 182.008 277.732 182.204 277.34 182.596C276.957 182.988 276.766 183.59 276.766 184.402ZM288.275 181.84C288.863 182.521 289.157 183.394 289.157 184.458C289.157 185.522 288.853 186.399 288.247 187.09C287.649 187.781 286.823 188.126 285.769 188.126C284.723 188.126 283.902 187.785 283.305 187.104C282.707 186.423 282.409 185.559 282.409 184.514C282.409 183.45 282.717 182.568 283.333 181.868C283.949 181.159 284.761 180.804 285.769 180.804C286.851 180.804 287.687 181.149 288.275 181.84ZM283.837 184.472C283.837 185.172 284.009 185.765 284.355 186.25C284.7 186.726 285.171 186.964 285.769 186.964C286.403 186.964 286.884 186.731 287.211 186.264C287.547 185.797 287.715 185.205 287.715 184.486C287.715 183.749 287.556 183.147 287.239 182.68C286.921 182.204 286.427 181.966 285.755 181.966C285.148 181.966 284.677 182.209 284.341 182.694C284.005 183.17 283.837 183.763 283.837 184.472ZM291.025 184.514C291.025 185.223 291.198 185.797 291.543 186.236C291.898 186.675 292.341 186.894 292.873 186.894C293.414 186.894 293.872 186.689 294.245 186.278C294.618 185.867 294.805 185.242 294.805 184.402C294.805 183.59 294.609 182.988 294.217 182.596C293.834 182.204 293.4 182.008 292.915 182.008C292.364 182.008 291.912 182.227 291.557 182.666C291.202 183.095 291.025 183.711 291.025 184.514ZM296.191 188H294.805V186.922C294.31 187.706 293.587 188.098 292.635 188.098C291.702 188.098 290.964 187.748 290.423 187.048C289.882 186.339 289.611 185.485 289.611 184.486C289.611 183.375 289.896 182.484 290.465 181.812C291.034 181.14 291.767 180.804 292.663 180.804C293.587 180.804 294.301 181.196 294.805 181.98V178.102H296.191V188ZM300.77 187.804C300.089 189.624 299.048 190.534 297.648 190.534C297.396 190.534 297.181 190.511 297.004 190.464V189.288C297.153 189.325 297.312 189.344 297.48 189.344C298.385 189.344 299.02 188.845 299.384 187.846L296.556 180.902H298.082L298.964 183.212L300.07 186.208C300.154 185.928 300.49 184.929 301.078 183.212L301.876 180.902H303.332L300.77 187.804Z" fill="white"/>
<g filter="url(#filter1_d_1200_4122)">
<path d="M142 149C142 141.82 147.82 136 155 136H233C240.18 136 246 141.82 246 149C246 156.18 240.18 162 233 162H142V149Z" fill="black" fill-opacity="0.4" shape-rendering="crispEdges"/>
</g>
<path d="M158.139 153H152.833V143.564H154.275V151.726H158.139V153ZM164.277 146.84C164.865 147.521 165.159 148.394 165.159 149.458C165.159 150.522 164.856 151.399 164.249 152.09C163.652 152.781 162.826 153.126 161.771 153.126C160.726 153.126 159.905 152.785 159.307 152.104C158.71 151.423 158.411 150.559 158.411 149.514C158.411 148.45 158.719 147.568 159.335 146.868C159.951 146.159 160.763 145.804 161.771 145.804C162.854 145.804 163.689 146.149 164.277 146.84ZM159.839 149.472C159.839 150.172 160.012 150.765 160.357 151.25C160.703 151.726 161.174 151.964 161.771 151.964C162.406 151.964 162.887 151.731 163.213 151.264C163.549 150.797 163.717 150.205 163.717 149.486C163.717 148.749 163.559 148.147 163.241 147.68C162.924 147.204 162.429 146.966 161.757 146.966C161.151 146.966 160.679 147.209 160.343 147.694C160.007 148.17 159.839 148.763 159.839 149.472ZM169.086 153H167.532L165.306 145.902H166.762L167.42 148.254C167.634 149.001 167.816 149.659 167.966 150.228C168.115 150.797 168.208 151.18 168.246 151.376L168.302 151.67C168.423 151.082 168.731 149.939 169.226 148.24L169.912 145.902H171.242L171.942 148.24C172.166 149.015 172.357 149.691 172.516 150.27C172.674 150.839 172.777 151.217 172.824 151.404L172.88 151.684C172.992 151.133 173.309 149.985 173.832 148.24L174.532 145.902H175.918L173.664 153H172.096L171.438 150.676C171.242 149.967 171.069 149.341 170.92 148.8C170.78 148.249 170.686 147.876 170.64 147.68L170.584 147.4C170.453 148.007 170.168 149.099 169.73 150.676L169.086 153ZM181.74 152.622C181.218 152.921 180.527 153.07 179.668 153.07C178.567 153.07 177.69 152.739 177.036 152.076C176.383 151.413 176.056 150.545 176.056 149.472C176.056 148.333 176.355 147.442 176.952 146.798C177.55 146.145 178.31 145.818 179.234 145.818C180.14 145.818 180.858 146.103 181.39 146.672C181.922 147.232 182.188 148.044 182.188 149.108C182.188 149.397 182.16 149.701 182.104 150.018H177.442C177.536 150.634 177.797 151.105 178.226 151.432C178.656 151.759 179.197 151.922 179.85 151.922C180.606 151.922 181.236 151.745 181.74 151.39V152.622ZM179.262 146.952C178.796 146.952 178.394 147.125 178.058 147.47C177.722 147.806 177.512 148.296 177.428 148.94H180.858V148.688C180.84 148.156 180.695 147.736 180.424 147.428C180.154 147.111 179.766 146.952 179.262 146.952ZM184.476 153H183.104V145.902H184.476V147.148C184.821 146.271 185.442 145.832 186.338 145.832C186.468 145.832 186.613 145.846 186.772 145.874V147.218C186.576 147.134 186.356 147.092 186.114 147.092C185.638 147.092 185.246 147.302 184.938 147.722C184.63 148.142 184.476 148.641 184.476 149.22V153ZM191.307 153H189.921V143.102H191.307V146.98C191.811 146.196 192.525 145.804 193.449 145.804C194.345 145.804 195.078 146.14 195.647 146.812C196.216 147.484 196.501 148.375 196.501 149.486C196.501 150.485 196.23 151.339 195.689 152.048C195.148 152.748 194.406 153.098 193.463 153.098C192.52 153.098 191.802 152.706 191.307 151.922V153ZM191.307 149.402C191.307 150.242 191.494 150.867 191.867 151.278C192.24 151.689 192.698 151.894 193.239 151.894C193.762 151.894 194.2 151.675 194.555 151.236C194.91 150.788 195.087 150.214 195.087 149.514C195.087 148.711 194.91 148.095 194.555 147.666C194.2 147.227 193.748 147.008 193.197 147.008C192.712 147.008 192.273 147.204 191.881 147.596C191.498 147.988 191.307 148.59 191.307 149.402ZM202.816 146.84C203.404 147.521 203.698 148.394 203.698 149.458C203.698 150.522 203.394 151.399 202.788 152.09C202.19 152.781 201.364 153.126 200.31 153.126C199.264 153.126 198.443 152.785 197.846 152.104C197.248 151.423 196.95 150.559 196.95 149.514C196.95 148.45 197.258 147.568 197.874 146.868C198.49 146.159 199.302 145.804 200.31 145.804C201.392 145.804 202.228 146.149 202.816 146.84ZM198.378 149.472C198.378 150.172 198.55 150.765 198.896 151.25C199.241 151.726 199.712 151.964 200.31 151.964C200.944 151.964 201.425 151.731 201.752 151.264C202.088 150.797 202.256 150.205 202.256 149.486C202.256 148.749 202.097 148.147 201.78 147.68C201.462 147.204 200.968 146.966 200.296 146.966C199.689 146.966 199.218 147.209 198.882 147.694C198.546 148.17 198.378 148.763 198.378 149.472ZM205.566 149.514C205.566 150.223 205.739 150.797 206.084 151.236C206.439 151.675 206.882 151.894 207.414 151.894C207.955 151.894 208.413 151.689 208.786 151.278C209.159 150.867 209.346 150.242 209.346 149.402C209.346 148.59 209.15 147.988 208.758 147.596C208.375 147.204 207.941 147.008 207.456 147.008C206.905 147.008 206.453 147.227 206.098 147.666C205.743 148.095 205.566 148.711 205.566 149.514ZM210.732 153H209.346V151.922C208.851 152.706 208.128 153.098 207.176 153.098C206.243 153.098 205.505 152.748 204.964 152.048C204.423 151.339 204.152 150.485 204.152 149.486C204.152 148.375 204.437 147.484 205.006 146.812C205.575 146.14 206.308 145.804 207.204 145.804C208.128 145.804 208.842 146.196 209.346 146.98V143.102H210.732V153ZM215.311 152.804C214.63 154.624 213.589 155.534 212.189 155.534C211.937 155.534 211.722 155.511 211.545 155.464V154.288C211.694 154.325 211.853 154.344 212.021 154.344C212.926 154.344 213.561 153.845 213.925 152.846L211.097 145.902H212.623L213.505 148.212L214.611 151.208C214.695 150.928 215.031 149.929 215.619 148.212L216.417 145.902H217.873L215.311 152.804ZM224.523 146.966H223.025V153H221.653V146.966H220.519V145.902H221.653V145.356C221.653 144.619 221.849 144.04 222.241 143.62C222.642 143.191 223.202 142.976 223.921 142.976C224.182 142.976 224.448 143.013 224.719 143.088V144.292C224.504 144.199 224.28 144.152 224.047 144.152C223.366 144.152 223.025 144.558 223.025 145.37V145.902H224.523V146.966ZM227.337 151.978C227.785 151.978 228.135 151.857 228.387 151.614C228.648 151.362 228.779 151.035 228.779 150.634V149.836H227.715C227.192 149.836 226.795 149.939 226.525 150.144C226.263 150.349 226.133 150.611 226.133 150.928C226.133 151.255 226.235 151.511 226.441 151.698C226.646 151.885 226.945 151.978 227.337 151.978ZM228.821 152.16C228.457 152.757 227.817 153.056 226.903 153.056C226.231 153.056 225.689 152.865 225.279 152.482C224.877 152.09 224.677 151.595 224.677 150.998C224.677 150.317 224.933 149.789 225.447 149.416C225.96 149.033 226.679 148.842 227.603 148.842H228.779V148.436C228.779 147.951 228.662 147.587 228.429 147.344C228.195 147.092 227.808 146.966 227.267 146.966C226.511 146.966 225.825 147.176 225.209 147.596V146.266C225.759 145.949 226.487 145.79 227.393 145.79C229.25 145.79 230.179 146.691 230.179 148.492V153H228.821V152.16ZM235.051 152.818C234.743 152.986 234.365 153.07 233.917 153.07C232.452 153.07 231.719 152.328 231.719 150.844V146.966H230.613V145.902H231.719V144.166H233.105V145.902H234.967V146.966H233.105V150.872C233.105 151.553 233.432 151.894 234.085 151.894C234.468 151.894 234.79 151.791 235.051 151.586V152.818Z" fill="white"/>
<g filter="url(#filter2_d_1200_4122)">
<path d="M71 113C71 105.82 76.8203 100 84 100H170C177.18 100 183 105.82 183 113C183 120.18 177.18 126 170 126H71V113Z" fill="black" fill-opacity="0.4" shape-rendering="crispEdges"/>
</g>
<path d="M82.5923 117H81.1643V107.564H82.5923V117ZM89.8537 117H88.4817V112.52C88.4817 112.025 88.3557 111.647 88.1037 111.386C87.861 111.125 87.5343 110.994 87.1237 110.994C86.6383 110.994 86.223 111.185 85.8777 111.568C85.5323 111.941 85.3597 112.469 85.3597 113.15V117H83.9877V109.902H85.3597V111.12C85.7797 110.243 86.517 109.804 87.5717 109.804C88.2717 109.804 88.827 110.019 89.2377 110.448C89.6483 110.877 89.8537 111.461 89.8537 112.198V117ZM96.0106 116.72C95.5533 117 94.97 117.14 94.2606 117.14C93.15 117.14 92.2633 116.79 91.6006 116.09C90.938 115.39 90.6066 114.517 90.6066 113.472C90.6066 112.455 90.938 111.587 91.6006 110.868C92.2726 110.14 93.178 109.776 94.3166 109.776C94.9326 109.776 95.4973 109.907 96.0106 110.168V111.428C95.5533 111.139 95.0353 110.994 94.4566 110.994C93.7193 110.994 93.1266 111.227 92.6786 111.694C92.24 112.161 92.0206 112.758 92.0206 113.486C92.0393 114.205 92.2586 114.797 92.6786 115.264C93.0986 115.721 93.6866 115.95 94.4426 115.95C95.0026 115.95 95.5253 115.796 96.0106 115.488V116.72ZM98.2605 117H96.8885V109.902H98.2605V111.148C98.6058 110.271 99.2265 109.832 100.122 109.832C100.253 109.832 100.398 109.846 100.556 109.874V111.218C100.36 111.134 100.141 111.092 99.8985 111.092C99.4225 111.092 99.0305 111.302 98.7225 111.722C98.4145 112.142 98.2605 112.641 98.2605 113.22V117ZM106.225 116.622C105.702 116.921 105.011 117.07 104.153 117.07C103.051 117.07 102.174 116.739 101.521 116.076C100.867 115.413 100.541 114.545 100.541 113.472C100.541 112.333 100.839 111.442 101.437 110.798C102.034 110.145 102.795 109.818 103.719 109.818C104.624 109.818 105.343 110.103 105.875 110.672C106.407 111.232 106.673 112.044 106.673 113.108C106.673 113.397 106.645 113.701 106.589 114.018H101.927C102.02 114.634 102.281 115.105 102.711 115.432C103.14 115.759 103.681 115.922 104.335 115.922C105.091 115.922 105.721 115.745 106.225 115.39V116.622ZM103.747 110.952C103.28 110.952 102.879 111.125 102.543 111.47C102.207 111.806 101.997 112.296 101.913 112.94H105.343V112.688C105.324 112.156 105.179 111.736 104.909 111.428C104.638 111.111 104.251 110.952 103.747 110.952ZM109.884 115.978C110.332 115.978 110.682 115.857 110.934 115.614C111.195 115.362 111.326 115.035 111.326 114.634V113.836H110.262C109.739 113.836 109.343 113.939 109.072 114.144C108.811 114.349 108.68 114.611 108.68 114.928C108.68 115.255 108.783 115.511 108.988 115.698C109.193 115.885 109.492 115.978 109.884 115.978ZM111.368 116.16C111.004 116.757 110.365 117.056 109.45 117.056C108.778 117.056 108.237 116.865 107.826 116.482C107.425 116.09 107.224 115.595 107.224 114.998C107.224 114.317 107.481 113.789 107.994 113.416C108.507 113.033 109.226 112.842 110.15 112.842H111.326V112.436C111.326 111.951 111.209 111.587 110.976 111.344C110.743 111.092 110.355 110.966 109.814 110.966C109.058 110.966 108.372 111.176 107.756 111.596V110.266C108.307 109.949 109.035 109.79 109.94 109.79C111.797 109.79 112.726 110.691 112.726 112.492V117H111.368V116.16ZM118.312 115.04C118.312 115.675 118.088 116.174 117.64 116.538C117.192 116.893 116.586 117.07 115.82 117.07C114.98 117.07 114.28 116.93 113.72 116.65V115.348C114.374 115.749 115.05 115.95 115.75 115.95C116.114 115.95 116.394 115.875 116.59 115.726C116.796 115.577 116.898 115.381 116.898 115.138C116.898 114.933 116.819 114.751 116.66 114.592C116.502 114.424 116.338 114.303 116.17 114.228C116.012 114.144 115.736 114.018 115.344 113.85C114.234 113.393 113.678 112.721 113.678 111.834C113.678 111.209 113.912 110.719 114.378 110.364C114.845 110.009 115.428 109.832 116.128 109.832C116.894 109.832 117.491 109.935 117.92 110.14V111.386C117.463 111.115 116.875 110.98 116.156 110.98C115.83 110.98 115.568 111.055 115.372 111.204C115.186 111.353 115.092 111.549 115.092 111.792C115.092 111.857 115.097 111.923 115.106 111.988C115.125 112.044 115.153 112.105 115.19 112.17C115.228 112.226 115.26 112.277 115.288 112.324C115.326 112.361 115.382 112.403 115.456 112.45C115.531 112.497 115.587 112.539 115.624 112.576C115.671 112.604 115.741 112.641 115.834 112.688C115.937 112.735 116.012 112.772 116.058 112.8C116.105 112.819 116.184 112.856 116.296 112.912C116.418 112.959 116.502 112.991 116.548 113.01C117.099 113.253 117.528 113.528 117.836 113.836C118.154 114.135 118.312 114.536 118.312 115.04ZM124.332 116.622C123.809 116.921 123.118 117.07 122.26 117.07C121.158 117.07 120.281 116.739 119.628 116.076C118.974 115.413 118.648 114.545 118.648 113.472C118.648 112.333 118.946 111.442 119.544 110.798C120.141 110.145 120.902 109.818 121.826 109.818C122.731 109.818 123.45 110.103 123.982 110.672C124.514 111.232 124.78 112.044 124.78 113.108C124.78 113.397 124.752 113.701 124.696 114.018H120.034C120.127 114.634 120.388 115.105 120.818 115.432C121.247 115.759 121.788 115.922 122.442 115.922C123.198 115.922 123.828 115.745 124.332 115.39V116.622ZM121.854 110.952C121.387 110.952 120.986 111.125 120.65 111.47C120.314 111.806 120.104 112.296 120.02 112.94H123.45V112.688C123.431 112.156 123.286 111.736 123.016 111.428C122.745 111.111 122.358 110.952 121.854 110.952ZM126.717 113.514C126.717 114.223 126.89 114.797 127.235 115.236C127.59 115.675 128.033 115.894 128.565 115.894C129.106 115.894 129.564 115.689 129.937 115.278C130.31 114.867 130.497 114.242 130.497 113.402C130.497 112.59 130.301 111.988 129.909 111.596C129.526 111.204 129.092 111.008 128.607 111.008C128.056 111.008 127.604 111.227 127.249 111.666C126.894 112.095 126.717 112.711 126.717 113.514ZM131.883 117H130.497V115.922C130.002 116.706 129.279 117.098 128.327 117.098C127.394 117.098 126.656 116.748 126.115 116.048C125.574 115.339 125.303 114.485 125.303 113.486C125.303 112.375 125.588 111.484 126.157 110.812C126.726 110.14 127.459 109.804 128.355 109.804C129.279 109.804 129.993 110.196 130.497 110.98V107.102H131.883V117ZM145.62 117H144.248V112.52C144.248 111.503 143.837 110.994 143.016 110.994C142.605 110.994 142.236 111.176 141.91 111.54C141.592 111.904 141.434 112.441 141.434 113.15V117H140.062V112.52C140.062 111.503 139.646 110.994 138.816 110.994C138.414 110.994 138.05 111.176 137.724 111.54C137.397 111.904 137.234 112.441 137.234 113.15V117H135.862V109.902H137.234V111.036C137.635 110.215 138.302 109.804 139.236 109.804C140.3 109.804 140.981 110.261 141.28 111.176C141.476 110.737 141.76 110.401 142.134 110.168C142.507 109.925 142.927 109.804 143.394 109.804C144.122 109.804 144.672 110.019 145.046 110.448C145.428 110.877 145.62 111.47 145.62 112.226V117ZM152.565 117H151.193V115.782C150.819 116.65 150.082 117.084 148.981 117.084C148.281 117.084 147.725 116.879 147.315 116.468C146.904 116.048 146.699 115.474 146.699 114.746V109.902H148.085V114.41C148.085 114.895 148.201 115.269 148.435 115.53C148.677 115.782 149.009 115.908 149.429 115.908C149.961 115.908 150.385 115.721 150.703 115.348C151.029 114.975 151.193 114.447 151.193 113.766V109.902H152.565V117ZM158.232 115.04C158.232 115.675 158.008 116.174 157.56 116.538C157.112 116.893 156.505 117.07 155.74 117.07C154.9 117.07 154.2 116.93 153.64 116.65V115.348C154.293 115.749 154.97 115.95 155.67 115.95C156.034 115.95 156.314 115.875 156.51 115.726C156.715 115.577 156.818 115.381 156.818 115.138C156.818 114.933 156.738 114.751 156.58 114.592C156.421 114.424 156.258 114.303 156.09 114.228C155.931 114.144 155.656 114.018 155.264 113.85C154.153 113.393 153.598 112.721 153.598 111.834C153.598 111.209 153.831 110.719 154.298 110.364C154.764 110.009 155.348 109.832 156.048 109.832C156.813 109.832 157.41 109.935 157.84 110.14V111.386C157.382 111.115 156.794 110.98 156.076 110.98C155.749 110.98 155.488 111.055 155.292 111.204C155.105 111.353 155.012 111.549 155.012 111.792C155.012 111.857 155.016 111.923 155.026 111.988C155.044 112.044 155.072 112.105 155.11 112.17C155.147 112.226 155.18 112.277 155.208 112.324C155.245 112.361 155.301 112.403 155.376 112.45C155.45 112.497 155.506 112.539 155.544 112.576C155.59 112.604 155.66 112.641 155.754 112.688C155.856 112.735 155.931 112.772 155.978 112.8C156.024 112.819 156.104 112.856 156.216 112.912C156.337 112.959 156.421 112.991 156.468 113.01C157.018 113.253 157.448 113.528 157.756 113.836C158.073 114.135 158.232 114.536 158.232 115.04ZM163.971 116.72C163.513 117 162.93 117.14 162.221 117.14C161.11 117.14 160.223 116.79 159.561 116.09C158.898 115.39 158.567 114.517 158.567 113.472C158.567 112.455 158.898 111.587 159.561 110.868C160.233 110.14 161.138 109.776 162.277 109.776C162.893 109.776 163.457 109.907 163.971 110.168V111.428C163.513 111.139 162.995 110.994 162.417 110.994C161.679 110.994 161.087 111.227 160.639 111.694C160.2 112.161 159.981 112.758 159.981 113.486C159.999 114.205 160.219 114.797 160.639 115.264C161.059 115.721 161.647 115.95 162.403 115.95C162.963 115.95 163.485 115.796 163.971 115.488V116.72ZM166.291 117H164.905V107.102H166.291V117ZM172.872 116.622C172.35 116.921 171.659 117.07 170.8 117.07C169.699 117.07 168.822 116.739 168.168 116.076C167.515 115.413 167.188 114.545 167.188 113.472C167.188 112.333 167.487 111.442 168.084 110.798C168.682 110.145 169.442 109.818 170.366 109.818C171.272 109.818 171.99 110.103 172.522 110.672C173.054 111.232 173.32 112.044 173.32 113.108C173.32 113.397 173.292 113.701 173.236 114.018H168.574C168.668 114.634 168.929 115.105 169.358 115.432C169.788 115.759 170.329 115.922 170.982 115.922C171.738 115.922 172.368 115.745 172.872 115.39V116.622ZM170.394 110.952C169.928 110.952 169.526 111.125 169.19 111.47C168.854 111.806 168.644 112.296 168.56 112.94H171.99V112.688C171.972 112.156 171.827 111.736 171.556 111.428C171.286 111.111 170.898 110.952 170.394 110.952Z" fill="white"/>
<g filter="url(#filter3_d_1200_4122)">
<path d="M0 46C0 38.8203 5.8203 33 13 33H99C106.18 33 112 38.8203 112 46C112 53.1797 106.18 59 99 59H0V46Z" fill="black" fill-opacity="0.4" shape-rendering="crispEdges"/>
</g>
<path d="M20.1684 41.768H17.6904V50H16.2484V41.768H13.7844V40.564H20.1684V41.768ZM26.2164 43.84C26.8044 44.5213 27.0984 45.394 27.0984 46.458C27.0984 47.522 26.795 48.3993 26.1884 49.09C25.591 49.7807 24.765 50.126 23.7104 50.126C22.665 50.126 21.8437 49.7853 21.2464 49.104C20.649 48.4227 20.3504 47.5593 20.3504 46.514C20.3504 45.45 20.6584 44.568 21.2744 43.868C21.8904 43.1587 22.7024 42.804 23.7104 42.804C24.793 42.804 25.6284 43.1493 26.2164 43.84ZM21.7784 46.472C21.7784 47.172 21.951 47.7647 22.2964 48.25C22.6417 48.726 23.113 48.964 23.7104 48.964C24.345 48.964 24.8257 48.7307 25.1524 48.264C25.4884 47.7973 25.6564 47.2047 25.6564 46.486C25.6564 45.7487 25.4977 45.1467 25.1804 44.68C24.863 44.204 24.3684 43.966 23.6964 43.966C23.0897 43.966 22.6184 44.2087 22.2824 44.694C21.9464 45.17 21.7784 45.7627 21.7784 46.472ZM33.8107 50H32.4387V45.52C32.4387 45.0253 32.3127 44.6473 32.0607 44.386C31.818 44.1247 31.4914 43.994 31.0807 43.994C30.5954 43.994 30.18 44.1853 29.8347 44.568C29.4894 44.9413 29.3167 45.4687 29.3167 46.15V50H27.9447V42.902H29.3167V44.12C29.7367 43.2427 30.474 42.804 31.5287 42.804C32.2287 42.804 32.784 43.0187 33.1947 43.448C33.6054 43.8773 33.8107 44.4607 33.8107 45.198V50ZM40.2476 49.622C39.725 49.9207 39.0343 50.07 38.1756 50.07C37.0743 50.07 36.197 49.7387 35.5436 49.076C34.8903 48.4133 34.5636 47.5453 34.5636 46.472C34.5636 45.3333 34.8623 44.442 35.4596 43.798C36.057 43.1447 36.8176 42.818 37.7416 42.818C38.647 42.818 39.3656 43.1027 39.8976 43.672C40.4296 44.232 40.6956 45.044 40.6956 46.108C40.6956 46.3973 40.6676 46.7007 40.6116 47.018H35.9496C36.043 47.634 36.3043 48.1053 36.7336 48.432C37.163 48.7587 37.7043 48.922 38.3576 48.922C39.1136 48.922 39.7436 48.7447 40.2476 48.39V49.622ZM37.7696 43.952C37.303 43.952 36.9016 44.1247 36.5656 44.47C36.2296 44.806 36.0196 45.296 35.9356 45.94H39.3656V45.688C39.347 45.156 39.2023 44.736 38.9316 44.428C38.661 44.1107 38.2736 43.952 37.7696 43.952ZM42.6331 46.514C42.6331 47.2233 42.8058 47.7973 43.1511 48.236C43.5058 48.6747 43.9491 48.894 44.4811 48.894C45.0225 48.894 45.4798 48.6887 45.8531 48.278C46.2265 47.8673 46.4131 47.242 46.4131 46.402C46.4131 45.59 46.2171 44.988 45.8251 44.596C45.4425 44.204 45.0085 44.008 44.5231 44.008C43.9725 44.008 43.5198 44.2273 43.1651 44.666C42.8105 45.0953 42.6331 45.7113 42.6331 46.514ZM47.7991 50H46.4131V48.922C45.9185 49.706 45.1951 50.098 44.2431 50.098C43.3098 50.098 42.5725 49.748 42.0311 49.048C41.4898 48.3387 41.2191 47.4847 41.2191 46.486C41.2191 45.3753 41.5038 44.484 42.0731 43.812C42.6425 43.14 43.3751 42.804 44.2711 42.804C45.1951 42.804 45.9091 43.196 46.4131 43.98V40.102H47.7991V50ZM56.2155 48.04C56.2155 48.6747 55.9915 49.174 55.5435 49.538C55.0955 49.8927 54.4889 50.07 53.7235 50.07C52.8835 50.07 52.1835 49.93 51.6235 49.65V48.348C52.2769 48.7493 52.9535 48.95 53.6535 48.95C54.0175 48.95 54.2975 48.8753 54.4935 48.726C54.6989 48.5767 54.8015 48.3807 54.8015 48.138C54.8015 47.9327 54.7222 47.7507 54.5635 47.592C54.4049 47.424 54.2415 47.3027 54.0735 47.228C53.9149 47.144 53.6395 47.018 53.2475 46.85C52.1369 46.3927 51.5815 45.7207 51.5815 44.834C51.5815 44.2087 51.8149 43.7187 52.2815 43.364C52.7482 43.0093 53.3315 42.832 54.0315 42.832C54.7969 42.832 55.3942 42.9347 55.8235 43.14V44.386C55.3662 44.1153 54.7782 43.98 54.0595 43.98C53.7329 43.98 53.4715 44.0547 53.2755 44.204C53.0889 44.3533 52.9955 44.5493 52.9955 44.792C52.9955 44.8573 53.0002 44.9227 53.0095 44.988C53.0282 45.044 53.0562 45.1047 53.0935 45.17C53.1309 45.226 53.1635 45.2773 53.1915 45.324C53.2289 45.3613 53.2849 45.4033 53.3595 45.45C53.4342 45.4967 53.4902 45.5387 53.5275 45.576C53.5742 45.604 53.6442 45.6413 53.7375 45.688C53.8402 45.7347 53.9149 45.772 53.9615 45.8C54.0082 45.8187 54.0875 45.856 54.1995 45.912C54.3209 45.9587 54.4049 45.9913 54.4515 46.01C55.0022 46.2527 55.4315 46.528 55.7395 46.836C56.0569 47.1347 56.2155 47.536 56.2155 48.04ZM60.6668 49.818C60.3588 49.986 59.9808 50.07 59.5328 50.07C58.0674 50.07 57.3348 49.328 57.3348 47.844V43.966H56.2288V42.902H57.3348V41.166H58.7208V42.902H60.5828V43.966H58.7208V47.872C58.7208 48.5533 59.0474 48.894 59.7008 48.894C60.0834 48.894 60.4054 48.7913 60.6668 48.586V49.818ZM66.9531 43.84C67.5411 44.5213 67.8351 45.394 67.8351 46.458C67.8351 47.522 67.5318 48.3993 66.9251 49.09C66.3278 49.7807 65.5018 50.126 64.4471 50.126C63.4018 50.126 62.5804 49.7853 61.9831 49.104C61.3858 48.4227 61.0871 47.5593 61.0871 46.514C61.0871 45.45 61.3951 44.568 62.0111 43.868C62.6271 43.1587 63.4391 42.804 64.4471 42.804C65.5298 42.804 66.3651 43.1493 66.9531 43.84ZM62.5151 46.472C62.5151 47.172 62.6878 47.7647 63.0331 48.25C63.3784 48.726 63.8498 48.964 64.4471 48.964C65.0818 48.964 65.5624 48.7307 65.8891 48.264C66.2251 47.7973 66.3931 47.2047 66.3931 46.486C66.3931 45.7487 66.2344 45.1467 65.9171 44.68C65.5998 44.204 65.1051 43.966 64.4331 43.966C63.8264 43.966 63.3551 44.2087 63.0191 44.694C62.6831 45.17 62.5151 45.7627 62.5151 46.472ZM78.4394 50H77.0674V45.52C77.0674 44.5027 76.6568 43.994 75.8354 43.994C75.4248 43.994 75.0561 44.176 74.7294 44.54C74.4121 44.904 74.2534 45.4407 74.2534 46.15V50H72.8814V45.52C72.8814 44.5027 72.4661 43.994 71.6354 43.994C71.2341 43.994 70.8701 44.176 70.5434 44.54C70.2168 44.904 70.0534 45.4407 70.0534 46.15V50H68.6814V42.902H70.0534V44.036C70.4548 43.2147 71.1221 42.804 72.0554 42.804C73.1194 42.804 73.8008 43.2613 74.0994 44.176C74.2954 43.7373 74.5801 43.4013 74.9534 43.168C75.3268 42.9253 75.7468 42.804 76.2134 42.804C76.9414 42.804 77.4921 43.0187 77.8654 43.448C78.2481 43.8773 78.4394 44.47 78.4394 45.226V50ZM81.8985 48.978C82.3465 48.978 82.6965 48.8567 82.9485 48.614C83.2099 48.362 83.3405 48.0353 83.3405 47.634V46.836H82.2765C81.7539 46.836 81.3572 46.9387 81.0865 47.144C80.8252 47.3493 80.6945 47.6107 80.6945 47.928C80.6945 48.2547 80.7972 48.5113 81.0025 48.698C81.2079 48.8847 81.5065 48.978 81.8985 48.978ZM83.3825 49.16C83.0185 49.7573 82.3792 50.056 81.4645 50.056C80.7925 50.056 80.2512 49.8647 79.8405 49.482C79.4392 49.09 79.2385 48.5953 79.2385 47.998C79.2385 47.3167 79.4952 46.7893 80.0085 46.416C80.5219 46.0333 81.2405 45.842 82.1645 45.842H83.3405V45.436C83.3405 44.9507 83.2239 44.5867 82.9905 44.344C82.7572 44.092 82.3699 43.966 81.8285 43.966C81.0725 43.966 80.3865 44.176 79.7705 44.596V43.266C80.3212 42.9487 81.0492 42.79 81.9545 42.79C83.8119 42.79 84.7405 43.6907 84.7405 45.492V50H83.3825V49.16ZM90.9009 49.72C90.4435 50 89.8602 50.14 89.1509 50.14C88.0402 50.14 87.1535 49.79 86.4909 49.09C85.8282 48.39 85.4969 47.5173 85.4969 46.472C85.4969 45.4547 85.8282 44.5867 86.4909 43.868C87.1629 43.14 88.0682 42.776 89.2069 42.776C89.8229 42.776 90.3875 42.9067 90.9009 43.168V44.428C90.4435 44.1387 89.9255 43.994 89.3469 43.994C88.6095 43.994 88.0169 44.2273 87.5689 44.694C87.1302 45.1607 86.9109 45.758 86.9109 46.486C86.9295 47.2047 87.1489 47.7973 87.5689 48.264C87.9889 48.7213 88.5769 48.95 89.3329 48.95C89.8929 48.95 90.4155 48.796 90.9009 48.488V49.72ZM97.6447 50H96.2727V45.52C96.2727 45.0347 96.1467 44.6613 95.8947 44.4C95.652 44.1293 95.33 43.994 94.9287 43.994C94.462 43.994 94.0467 44.1713 93.6827 44.526C93.328 44.8807 93.1507 45.422 93.1507 46.15V50H91.7787V40.102H93.1507V44.12C93.552 43.2427 94.2847 42.804 95.3487 42.804C96.0394 42.804 96.5947 43.0187 97.0147 43.448C97.4347 43.8773 97.6447 44.4747 97.6447 45.24V50Z" fill="white"/>
</g>
<path d="M317 214.5H0V215.5H317V214.5Z" fill="black" fill-opacity="0.1" mask="url(#path-1-inside-1_1200_4122)"/>
<defs>
<filter id="filter0_d_1200_4122" x="200.796" y="161" width="128" height="50" filterUnits="userSpaceOnUse" color-interpolation-filters="sRGB">
<feFlood flood-opacity="0" result="BackgroundImageFix"/>
<feColorMatrix in="SourceAlpha" type="matrix" values="0 0 0 0 0 0 0 0 0 0 0 0 0 0 0 0 0 0 127 0" result="hardAlpha"/>
<feOffset dy="2"/>
<feGaussianBlur stdDeviation="6"/>
<feComposite in2="hardAlpha" operator="out"/>
<feColorMatrix type="matrix" values="0 0 0 0 0 0 0 0 0 0 0 0 0 0 0 0 0 0 0.05 0"/>
<feBlend mode="normal" in2="BackgroundImageFix" result="effect1_dropShadow_1200_4122"/>
<feBlend mode="normal" in="SourceGraphic" in2="effect1_dropShadow_1200_4122" result="shape"/>
</filter>
<filter id="filter1_d_1200_4122" x="130" y="126" width="128" height="50" filterUnits="userSpaceOnUse" color-interpolation-filters="sRGB">
<feFlood flood-opacity="0" result="BackgroundImageFix"/>
<feColorMatrix in="SourceAlpha" type="matrix" values="0 0 0 0 0 0 0 0 0 0 0 0 0 0 0 0 0 0 127 0" result="hardAlpha"/>
<feOffset dy="2"/>
<feGaussianBlur stdDeviation="6"/>
<feComposite in2="hardAlpha" operator="out"/>
<feColorMatrix type="matrix" values="0 0 0 0 0 0 0 0 0 0 0 0 0 0 0 0 0 0 0.05 0"/>
<feBlend mode="normal" in2="BackgroundImageFix" result="effect1_dropShadow_1200_4122"/>
<feBlend mode="normal" in="SourceGraphic" in2="effect1_dropShadow_1200_4122" result="shape"/>
</filter>
<filter id="filter2_d_1200_4122" x="59" y="90" width="136" height="50" filterUnits="userSpaceOnUse" color-interpolation-filters="sRGB">
<feFlood flood-opacity="0" result="BackgroundImageFix"/>
<feColorMatrix in="SourceAlpha" type="matrix" values="0 0 0 0 0 0 0 0 0 0 0 0 0 0 0 0 0 0 127 0" result="hardAlpha"/>
<feOffset dy="2"/>
<feGaussianBlur stdDeviation="6"/>
<feComposite in2="hardAlpha" operator="out"/>
<feColorMatrix type="matrix" values="0 0 0 0 0 0 0 0 0 0 0 0 0 0 0 0 0 0 0.05 0"/>
<feBlend mode="normal" in2="BackgroundImageFix" result="effect1_dropShadow_1200_4122"/>
<feBlend mode="normal" in="SourceGraphic" in2="effect1_dropShadow_1200_4122" result="shape"/>
</filter>
<filter id="filter3_d_1200_4122" x="-12" y="23" width="136" height="50" filterUnits="userSpaceOnUse" color-interpolation-filters="sRGB">
<feFlood flood-opacity="0" result="BackgroundImageFix"/>
<feColorMatrix in="SourceAlpha" type="matrix" values="0 0 0 0 0 0 0 0 0 0 0 0 0 0 0 0 0 0 127 0" result="hardAlpha"/>
<feOffset dy="2"/>
<feGaussianBlur stdDeviation="6"/>
<feComposite in2="hardAlpha" operator="out"/>
<feColorMatrix type="matrix" values="0 0 0 0 0 0 0 0 0 0 0 0 0 0 0 0 0 0 0.05 0"/>
<feBlend mode="normal" in2="BackgroundImageFix" result="effect1_dropShadow_1200_4122"/>
<feBlend mode="normal" in="SourceGraphic" in2="effect1_dropShadow_1200_4122" result="shape"/>
</filter>
<linearGradient id="paint0_linear_1200_4122" x1="145.296" y1="193.5" x2="10.2959" y2="67.5" gradientUnits="userSpaceOnUse">
<stop stop-color="#66B481"/>
<stop offset="1" stop-color="#EEE060"/>
</linearGradient>
<clipPath id="clip0_1200_4122">
<path d="M0 0H317V215H0V0Z" fill="white"/>
</clipPath>
</defs>
</svg>
