<svg width="23" height="26" viewBox="0 0 23 26" fill="none" xmlns="http://www.w3.org/2000/svg">
<path d="M7.50534 3.05777L5.70222 1.86625C4.81582 1.28052 3.70213 1.15589 2.70819 1.53121C2.2152 1.71736 1.77378 2.01853 1.42066 2.40967L1.39456 2.43858C0.818748 3.07637 0.5 3.90508 0.5 4.76434V4.84879C0.5 5.64306 0.756264 6.41612 1.23071 7.05311L2.74349 9.08415C3.25841 9.77549 4.06975 10.1828 4.93178 10.1828C5.72802 10.1828 6.48455 9.83503 7.00292 9.23064L8.17721 7.8615C8.68004 7.27523 8.95646 6.52836 8.95646 5.756C8.95646 4.67 8.41139 3.65649 7.50534 3.05777Z" fill="url(#paint0_linear_1070_4560)"/>
<path d="M21.049 3.05777L19.2459 1.86625C18.3595 1.28052 17.2458 1.15589 16.2519 1.53121C15.7589 1.71736 15.3175 2.01853 14.9644 2.40967L14.9383 2.43858C14.3624 3.07637 14.0437 3.90508 14.0437 4.76434V4.84879C14.0437 5.64306 14.3 6.41612 14.7744 7.05311L16.2872 9.08415C16.8021 9.77549 17.6134 10.1828 18.4755 10.1828C19.2717 10.1828 20.0282 9.83503 20.5466 9.23064L21.7209 7.8615C22.2237 7.27523 22.5002 6.52836 22.5002 5.756C22.5002 4.67 21.9551 3.65649 21.049 3.05777Z" fill="url(#paint1_linear_1070_4560)"/>
<path d="M7.50534 18.1242L5.70222 16.9327C4.81582 16.3469 3.70213 16.2223 2.70819 16.5976C2.2152 16.7838 1.77378 17.0849 1.42066 17.4761L1.39456 17.505C0.818748 18.1428 0.5 18.9715 0.5 19.8307V19.9152C0.5 20.7095 0.756264 21.4825 1.23071 22.1195L2.74349 24.1506C3.25841 24.8419 4.06975 25.2492 4.93178 25.2492C5.72802 25.2492 6.48455 24.9014 7.00292 24.297L8.17721 22.9279C8.68004 22.3416 8.95646 21.5948 8.95646 20.8224C8.95646 19.7364 8.41139 18.7229 7.50534 18.1242Z" fill="url(#paint2_linear_1070_4560)"/>
<path d="M21.049 18.1242L19.2459 16.9327C18.3595 16.3469 17.2458 16.2223 16.2519 16.5976C15.7589 16.7838 15.3175 17.0849 14.9644 17.4761L14.9383 17.505C14.3624 18.1428 14.0437 18.9715 14.0437 19.8307V19.9152C14.0437 20.7095 14.3 21.4825 14.7744 22.1195L16.2872 24.1506C16.8021 24.8419 17.6134 25.2492 18.4755 25.2492C19.2717 25.2492 20.0282 24.9014 20.5466 24.297L21.7209 22.9279C22.2237 22.3416 22.5002 21.5948 22.5002 20.8224C22.5002 19.7364 21.9551 18.7229 21.049 18.1242Z" fill="url(#paint3_linear_1070_4560)"/>
<defs>
<linearGradient id="paint0_linear_1070_4560" x1="4.72823" y1="0.933594" x2="4.72823" y2="10.1828" gradientUnits="userSpaceOnUse">
<stop stop-color="#FECE9F"/>
<stop offset="1" stop-color="#FFFAF6"/>
</linearGradient>
<linearGradient id="paint1_linear_1070_4560" x1="18.2719" y1="0.933594" x2="18.2719" y2="10.1828" gradientUnits="userSpaceOnUse">
<stop stop-color="#FECE9F"/>
<stop offset="1" stop-color="#FFFAF6"/>
</linearGradient>
<linearGradient id="paint2_linear_1070_4560" x1="4.72823" y1="16" x2="4.72823" y2="25.2492" gradientUnits="userSpaceOnUse">
<stop stop-color="#FECE9F"/>
<stop offset="1" stop-color="#FFFAF6"/>
</linearGradient>
<linearGradient id="paint3_linear_1070_4560" x1="18.2719" y1="16" x2="18.2719" y2="25.2492" gradientUnits="userSpaceOnUse">
<stop stop-color="#FECE9F"/>
<stop offset="1" stop-color="#FFFAF6"/>
</linearGradient>
</defs>
</svg>
