<svg width="23" height="24" viewBox="0 0 23 24" fill="none" xmlns="http://www.w3.org/2000/svg">
<path fill-rule="evenodd" clip-rule="evenodd" d="M17.8237 2.41746e-06C15.3372 0.00136479 13.3222 2.01643 13.318 4.50289C13.318 5.27267 13.942 5.89805 14.7132 5.89805C15.4829 5.89805 16.1083 5.27267 16.1083 4.50289C16.1097 3.81075 16.528 3.18676 17.167 2.92245C17.8073 2.65813 18.5431 2.80664 19.0322 3.29576C19.5213 3.78623 19.6671 4.52197 19.4028 5.16235C19.1371 5.80133 18.5131 6.21825 17.821 6.21825H1.89516C1.12402 6.21825 0.5 6.84363 0.5 7.61341C0.5 8.38455 1.12402 9.00857 1.89516 9.00857H18.0717C18.1794 9.00857 18.2856 8.99495 18.3892 8.97042C20.7503 8.67476 22.4739 6.59428 22.3239 4.21954C22.1739 1.8448 20.2038 -0.00243912 17.8237 2.41746e-06ZM20.5135 13.4113C21.2846 13.4113 21.9086 12.7859 21.9086 12.0161C21.9086 11.245 21.2846 10.621 20.5135 10.621H3.66372C2.89258 10.621 2.26855 11.245 2.26855 12.0161C2.26855 12.7859 2.89258 13.4113 3.66372 13.4113H20.5135ZM18.0717 14.9764C18.1794 14.9778 18.2856 14.9901 18.3892 15.0159C20.1455 15.238 21.6075 16.467 22.1279 18.1591C22.6484 19.8501 22.1293 21.6894 20.8022 22.8598C19.4751 24.0301 17.5839 24.3149 15.9708 23.5873C14.359 22.8583 13.3221 21.2533 13.3208 19.4835C13.3208 18.7123 13.9462 18.0883 14.7159 18.0883C15.4871 18.0883 16.1111 18.7123 16.1111 19.4835C16.1125 20.1756 16.5308 20.7996 17.1711 21.0626C17.8115 21.3269 18.5472 21.1797 19.0363 20.6892C19.5255 20.2001 19.6713 19.463 19.4056 18.824C19.1412 18.1837 18.5159 17.7668 17.8237 17.7668H1.89516C1.12402 17.7668 0.5 17.1427 0.5 16.3716C0.5 15.6018 1.12402 14.9764 1.89516 14.9764H18.0717Z" fill="url(#paint0_linear_1070_4534)"/>
<defs>
<linearGradient id="paint0_linear_1070_4534" x1="11.5" y1="0" x2="11.5" y2="26" gradientUnits="userSpaceOnUse">
<stop stop-color="#9C9898"/>
<stop offset="1" stop-color="#FFFBFB"/>
</linearGradient>
</defs>
</svg>
