<svg width="30" height="27" viewBox="0 0 30 27" fill="none" xmlns="http://www.w3.org/2000/svg">
<path d="M8.37381 0.765862L7.99981 0.889826C6.45742 1.40107 5.05091 2.25513 3.8859 3.38786L3.69697 3.57156C1.7349 5.47926 0.62793 8.09951 0.62793 10.8361C0.62793 13.2374 1.48076 15.5606 3.03436 17.3916L8.12038 23.3857C10.0657 25.6783 12.9205 27 15.9273 27C18.6839 27 21.324 25.8884 23.2505 23.9168L27.2179 19.8563C28.8678 18.1676 29.7916 15.9004 29.7916 13.5396C29.7916 10.3169 28.0757 7.33805 25.2881 5.72108L18.5562 1.81612C15.4687 0.0251914 11.7618 -0.357147 8.37381 0.765862Z" fill="url(#paint0_linear_1070_4546)"/>
<defs>
<linearGradient id="paint0_linear_1070_4546" x1="15.2097" y1="-1" x2="15.2097" y2="27" gradientUnits="userSpaceOnUse">
<stop stop-color="#FEB3FE"/>
<stop offset="1" stop-color="#FDF1FE" stop-opacity="0.3"/>
</linearGradient>
</defs>
</svg>
