<svg width="34" height="28" viewBox="0 0 34 28" fill="none" xmlns="http://www.w3.org/2000/svg">
<path d="M14.0335 4.33022L10.459 1.91658C8.68066 0.715738 6.42745 0.460417 4.42546 1.23289C3.4436 1.61175 2.56727 2.22124 1.87045 3.00994L1.78173 3.11036C0.633647 4.4098 0 6.08399 0 7.81796V8.04441C0 9.6763 0.517908 11.2661 1.47915 12.5848L4.53386 16.7757C5.55265 18.1734 7.17808 19 8.90767 19C10.5073 19 12.0249 18.2924 13.0533 17.0672L15.4234 14.2434C16.4418 13.0301 17 11.4968 17 9.9128C17 7.67467 15.8884 5.5827 14.0335 4.33022Z" fill="url(#paint0_linear_1070_4584)"/>
<path d="M31.0335 13.3302L27.459 10.9166C25.6807 9.71574 23.4274 9.46042 21.4255 10.2329C20.4436 10.6117 19.5673 11.2212 18.8704 12.0099L18.7817 12.1104C17.6336 13.4098 17 15.084 17 16.818V17.0444C17 18.6763 17.5179 20.2661 18.4791 21.5848L21.5339 25.7757C22.5526 27.1734 24.1781 28 25.9077 28C27.5073 28 29.0249 27.2924 30.0533 26.0672L32.4234 23.2434C33.4418 22.0301 34 20.4968 34 18.9128C34 16.6747 32.8884 14.5827 31.0335 13.3302Z" fill="url(#paint1_linear_1070_4584)"/>
<defs>
<linearGradient id="paint0_linear_1070_4584" x1="8.5" y1="0" x2="8.5" y2="19" gradientUnits="userSpaceOnUse">
<stop stop-color="#CDADFF"/>
<stop offset="1" stop-color="#FCFBFF" stop-opacity="0.5"/>
</linearGradient>
<linearGradient id="paint1_linear_1070_4584" x1="25.5" y1="9" x2="25.5" y2="28" gradientUnits="userSpaceOnUse">
<stop stop-color="#CDADFF"/>
<stop offset="1" stop-color="#FCFBFF" stop-opacity="0.5"/>
</linearGradient>
</defs>
</svg>
