<?xml version="1.0" encoding="UTF-8"?>
<svg id="Layer_1" data-name="Layer 1" xmlns="http://www.w3.org/2000/svg" viewBox="0 0 320.56 320.56">
  <defs>
    <style>
      .cls-1 {
        fill: none;
      }
    </style>
  </defs>
  <path d="M320.56,150.54v19.99l-2.7,19.48c-11.93,64.08-63.67,115.81-127.79,127.74l-19.49,2.7c-6.61-.28-13.4.39-20,0C11.32,312.29-51.47,137.42,52.78,42.46c99.22-90.38,260.01-24.48,267.77,108.08ZM154.21,32.66C52.93,37.96-3.16,154.49,57.85,236.68c53.99,72.73,164.45,67.76,211.72-9.37,53.69-87.59-13.4-199.98-115.36-194.65Z"/>
  <path class="cls-1" d="M150.59,320.43H0V0h320.56v150.54C312.8,17.98,152-47.92,52.78,42.46-51.47,137.42,11.32,312.29,150.59,320.43Z"/>
  <path class="cls-1" d="M320.56,170.52v149.91h-149.97l19.49-2.7c64.11-11.92,115.86-63.66,127.79-127.74l2.7-19.48Z"/>
  <path class="cls-1" d="M154.21,32.66c101.96-5.33,169.05,107.06,115.36,194.65-47.28,77.13-157.74,82.09-211.72,9.37C-3.16,154.49,52.93,37.96,154.21,32.66ZM158.59,64.52c-76.68,1.52-121.09,89.7-75.72,152.16,41.16,56.66,126.95,51.76,161.33-9.11,36.47-64.57-11.93-144.5-85.61-143.04Z"/>
  <path d="M158.59,64.52c73.68-1.46,122.08,78.47,85.61,143.04-34.39,60.88-120.17,65.78-161.33,9.11-45.37-62.45-.95-150.63,75.72-152.16ZM152.97,97c-44.15,4.11-69.56,54.53-48.94,93.52,26.59,50.27,102.53,42.69,117.96-12.03,12.68-44.95-23.04-85.77-69.02-81.49Z"/>
  <path class="cls-1" d="M152.97,97c45.99-4.28,81.7,36.55,69.02,81.49-15.44,54.72-91.38,62.3-117.96,12.03-20.62-38.99,4.78-89.41,48.94-93.52ZM156.08,128.85c-39.9,4.82-34.54,67.99,8.5,63.46,40.54-4.27,35.27-68.75-8.5-63.46Z"/>
  <path d="M156.08,128.85c43.77-5.29,49.03,59.19,8.5,63.46-43.04,4.53-48.39-58.64-8.5-63.46Z"/>
</svg>